<svg width="22" height="21" viewBox="0 0 22 21" fill="none" xmlns="http://www.w3.org/2000/svg">
<path d="M21.5749 9.1875H12.1803V3.9375H5.4699V6.5625H9.49615V15.75H5.4699V18.375H12.1803V11.8125H21.5749V21H12.1803V19.6875H4.12782V15.75H0.101562V6.5625H4.12782V2.625H12.1803V0H21.5749V9.1875ZM13.5224 1.3125V2.625H20.2328V1.3125H13.5224ZM13.5224 3.9375V7.875H20.2328V3.9375H13.5224ZM13.5224 13.125V14.4375H20.2328V13.125H13.5224ZM13.5224 15.75V19.6875H20.2328V15.75H13.5224ZM8.15407 14.4375V10.5H1.44365V14.4375H8.15407ZM8.15407 7.875H1.44365V9.1875H8.15407V7.875Z" fill="black"/>
</svg>
