<svg width="27" height="26" viewBox="0 0 27 26" fill="none" xmlns="http://www.w3.org/2000/svg">
<path fill-rule="evenodd" clip-rule="evenodd" d="M5.90039 2.95894C5.90039 1.28122 13.4837 0 13.4837 0C13.4837 0 21.0671 1.28122 21.0671 2.95894C21.0671 5.19567 19.6876 6.13889 19.6876 6.13889H7.27983C7.27983 6.13889 5.90039 5.19567 5.90039 2.95894ZM14.9282 2.57617C14.9282 2.57617 13.8687 2.1905 13.4837 1.80556C13.0988 2.1905 12.0393 2.57617 12.0393 2.57617C12.0393 2.57617 12.3282 4.69444 13.4837 4.69444C14.6393 4.69444 14.9282 2.57617 14.9282 2.57617ZM19.1272 8.86889C20.1311 8.08528 19.9751 7.22222 19.9751 7.22222H6.99239C6.99239 7.22222 6.83567 8.08528 7.84028 8.86889C7.65535 9.71265 7.66195 10.5871 7.85961 11.428C8.05727 12.2689 8.44095 13.0547 8.98243 13.7277C9.5239 14.4007 10.2094 14.9438 10.9884 15.3169C11.7675 15.69 12.6203 15.8837 13.4841 15.8837C14.3479 15.8837 15.2007 15.69 15.9797 15.3169C16.7588 14.9438 17.4443 14.4007 17.9857 13.7277C18.5272 13.0547 18.9109 12.2689 19.1086 11.428C19.3062 10.5871 19.3128 9.71265 19.1279 8.86889H19.1272ZM13.4837 10.1111C15.4489 10.1111 16.8226 9.88433 17.7824 9.55789C17.8605 10.1684 17.8076 10.7886 17.6274 11.377C17.4471 11.9655 17.1435 12.5089 16.7368 12.9709C16.3301 13.4329 15.8297 13.803 15.2689 14.0565C14.708 14.31 14.0996 14.4411 13.4841 14.4411C12.8686 14.4411 12.2602 14.31 11.6993 14.0565C11.1384 13.803 10.638 13.4329 10.2314 12.9709C9.82469 12.5089 9.5211 11.9655 9.34082 11.377C9.16053 10.7886 9.10768 10.1684 9.18578 9.55789C10.1449 9.88433 11.5186 10.1111 13.4837 10.1111Z" fill="black"/>
<path fill-rule="evenodd" clip-rule="evenodd" d="M8.33948 15.8889L13.0173 19.8301C13.1475 19.9397 13.3122 19.9998 13.4824 19.9998C13.6526 19.9998 13.8173 19.9397 13.9475 19.8301L18.6254 15.8889C18.6254 15.8889 26.4824 18.3394 26.4824 21.2817V26H0.482422V21.2817C0.482422 18.3394 8.33948 15.8889 8.33948 15.8889ZM5.33937 22.5384C5.18856 22.4953 5.05589 22.4042 4.96143 22.279C4.86696 22.1538 4.81582 22.0012 4.81575 21.8444V20.9445H9.87131V21.8444C9.87124 22.0012 9.82011 22.1538 9.72564 22.279C9.63117 22.4042 9.49851 22.4953 9.3477 22.5384L7.54214 23.0548C7.41234 23.0919 7.27473 23.0919 7.14492 23.0548L5.33937 22.5384ZM20.4627 19.5903C20.4561 19.5637 20.4408 19.5401 20.4192 19.5232C20.3976 19.5063 20.371 19.4971 20.3435 19.4971C20.3161 19.4971 20.2895 19.5063 20.2679 19.5232C20.2463 19.5401 20.231 19.5637 20.2244 19.5903L19.8842 20.6881C19.8768 20.714 19.8611 20.7369 19.8397 20.7533C19.8182 20.7697 19.792 20.7787 19.765 20.7791H18.6629C18.5423 20.7791 18.4918 20.9416 18.59 21.016L19.4812 21.6949C19.5245 21.7281 19.5433 21.7873 19.5267 21.8408L19.1865 22.9385C19.149 23.0599 19.2804 23.1602 19.3786 23.0859L20.2699 22.407C20.2909 22.3906 20.3168 22.3817 20.3435 22.3817C20.3702 22.3817 20.3961 22.3906 20.4172 22.407L21.3084 23.0859C21.4066 23.1602 21.5381 23.0599 21.5013 22.9392L21.1604 21.8415C21.1521 21.8153 21.152 21.7872 21.1601 21.761C21.1682 21.7348 21.1842 21.7117 21.2059 21.6949L22.0971 21.016C22.1953 20.9416 22.1448 20.7791 22.0241 20.7791H20.9213C20.8944 20.7788 20.8683 20.7698 20.8468 20.7536C20.8254 20.7373 20.8097 20.7146 20.8021 20.6888L20.4613 19.591L20.4627 19.5903Z" fill="black"/>
</svg>
