<svg width="26" height="24" viewBox="0 0 26 24" fill="none" xmlns="http://www.w3.org/2000/svg">
<path d="M16.4336 15.8257C17.6408 15.8257 18.6206 16.8269 18.6206 18.0607L18.6193 19.2893C18.7655 22.0862 16.731 23.5 13.0807 23.5C9.44406 23.5 7.37332 22.1079 7.37332 19.3378V18.0607C7.37332 16.8269 8.35308 15.8257 9.56028 15.8257H16.4336ZM16.4336 17.7414H9.56028C9.47742 17.7414 9.39795 17.775 9.33936 17.8349C9.28077 17.8948 9.24786 17.976 9.24786 18.0607V19.3378C9.24786 20.8397 10.3563 21.5843 13.0807 21.5843C15.79 21.5843 16.8235 20.864 16.746 19.3404V18.0607C16.746 17.976 16.7131 17.8948 16.6545 17.8349C16.5959 17.775 16.5165 17.7414 16.4336 17.7414ZM2.68696 9.43997H8.15562C7.99817 10.0652 7.95789 10.7152 8.0369 11.3557H2.68696C2.6041 11.3557 2.52464 11.3893 2.46605 11.4492C2.40746 11.5091 2.37454 11.5903 2.37454 11.675V12.9521C2.37454 14.454 3.48302 15.1986 6.20735 15.1986C6.78471 15.1986 7.28584 15.1654 7.71573 15.1003C7.00069 15.5632 6.47854 16.2802 6.24984 17.113L6.20735 17.1143C2.57074 17.1143 0.5 15.7222 0.5 12.9521V11.675C0.5 10.4413 1.47976 9.43997 2.68696 9.43997ZM23.3069 9.43997C24.5141 9.43997 25.4939 10.4413 25.4939 11.675L25.4926 12.9036C25.6388 15.7005 23.6043 17.1143 19.954 17.1143L19.7428 17.1117C19.5071 16.2561 18.9633 15.5233 18.2207 15.0607C18.7043 15.1526 19.2791 15.1986 19.954 15.1986C22.6633 15.1986 23.6968 14.4783 23.6193 12.9547V11.675C23.6193 11.5903 23.5864 11.5091 23.5278 11.4492C23.4692 11.3893 23.3898 11.3557 23.3069 11.3557H17.9582C18.0355 10.7151 17.9949 10.0653 17.8383 9.43997H23.3069ZM12.9969 6.8857C13.4893 6.8857 13.9768 6.9848 14.4316 7.17734C14.8865 7.36989 15.2998 7.65211 15.6479 8.00789C15.9961 8.36367 16.2722 8.78604 16.4606 9.25089C16.649 9.71574 16.746 10.214 16.746 10.7171C16.746 11.2203 16.649 11.7185 16.4606 12.1833C16.2722 12.6482 15.9961 13.0706 15.6479 13.4263C15.2998 13.7821 14.8865 14.0643 14.4316 14.2569C13.9768 14.4494 13.4893 14.5485 12.9969 14.5485C12.0026 14.5485 11.049 14.1449 10.3459 13.4263C9.64285 12.7078 9.24786 11.7333 9.24786 10.7171C9.24786 9.70096 9.64285 8.72642 10.3459 8.00789C11.049 7.28936 12.0026 6.8857 12.9969 6.8857ZM12.9969 8.8014C12.7508 8.8014 12.507 8.85096 12.2796 8.94723C12.0522 9.0435 11.8455 9.18461 11.6714 9.3625C11.4974 9.54039 11.3593 9.75158 11.2651 9.984C11.1709 10.2164 11.1224 10.4655 11.1224 10.7171C11.1224 10.9687 11.1709 11.2178 11.2651 11.4502C11.3593 11.6826 11.4974 11.8938 11.6714 12.0717C11.8455 12.2496 12.0522 12.3907 12.2796 12.487C12.507 12.5833 12.7508 12.6328 12.9969 12.6328C13.4941 12.6328 13.9709 12.431 14.3224 12.0717C14.674 11.7125 14.8715 11.2252 14.8715 10.7171C14.8715 10.209 14.674 9.72177 14.3224 9.3625C13.9709 9.00324 13.4941 8.8014 12.9969 8.8014ZM6.12362 0.5C7.11794 0.5 8.07153 0.903666 8.77462 1.6222C9.47771 2.34073 9.8727 3.31526 9.8727 4.33142C9.8727 5.34757 9.47771 6.32211 8.77462 7.04064C8.07153 7.75917 7.11794 8.16284 6.12362 8.16284C5.1293 8.16284 4.17571 7.75917 3.47262 7.04064C2.76953 6.32211 2.37454 5.34757 2.37454 4.33142C2.37454 3.31526 2.76953 2.34073 3.47262 1.6222C4.17571 0.903666 5.1293 0.5 6.12362 0.5ZM19.8703 0.5C20.8646 0.5 21.8182 0.903666 22.5213 1.6222C23.2243 2.34073 23.6193 3.31526 23.6193 4.33142C23.6193 5.34757 23.2243 6.32211 22.5213 7.04064C21.8182 7.75917 20.8646 8.16284 19.8703 8.16284C18.8759 8.16284 17.9223 7.75917 17.2193 7.04064C16.5162 6.32211 16.1212 5.34757 16.1212 4.33142C16.1212 3.31526 16.5162 2.34073 17.2193 1.6222C17.9223 0.903666 18.8759 0.5 19.8703 0.5ZM6.12362 2.41571C5.62646 2.41571 5.14967 2.61754 4.79812 2.97681C4.44658 3.33607 4.24908 3.82334 4.24908 4.33142C4.24908 4.8395 4.44658 5.32676 4.79812 5.68603C5.14967 6.04529 5.62646 6.24713 6.12362 6.24713C6.62078 6.24713 7.09758 6.04529 7.44912 5.68603C7.80067 5.32676 7.99816 4.8395 7.99816 4.33142C7.99816 3.82334 7.80067 3.33607 7.44912 2.97681C7.09758 2.61754 6.62078 2.41571 6.12362 2.41571ZM19.8703 2.41571C19.3731 2.41571 18.8963 2.61754 18.5448 2.97681C18.1932 3.33607 17.9957 3.82334 17.9957 4.33142C17.9957 4.8395 18.1932 5.32676 18.5448 5.68603C18.8963 6.04529 19.3731 6.24713 19.8703 6.24713C20.3674 6.24713 20.8442 6.04529 21.1958 5.68603C21.5473 5.32676 21.7448 4.8395 21.7448 4.33142C21.7448 3.82334 21.5473 3.33607 21.1958 2.97681C20.8442 2.61754 20.3674 2.41571 19.8703 2.41571Z" fill="black"/>
</svg>
