<svg width="22" height="26" viewBox="0 0 22 26" fill="none" xmlns="http://www.w3.org/2000/svg">
<path d="M11.0062 6.45223e-08C11.7198 -0.000145569 12.4115 0.246247 12.9642 0.697477C13.517 1.14871 13.8969 1.77706 14.0396 2.47619H17.8158C18.8008 2.47619 19.7456 2.86752 20.4422 3.56408C21.1387 4.26064 21.53 5.20539 21.53 6.19048V22.2857C21.53 23.2708 21.1387 24.2155 20.4422 24.9121C19.7456 25.6087 18.8008 26 17.8158 26H4.19671C3.21162 26 2.26687 25.6087 1.57031 24.9121C0.873747 24.2155 0.482422 23.2708 0.482422 22.2857V6.19048C0.482422 5.20539 0.873747 4.26064 1.57031 3.56408C2.26687 2.86752 3.21162 2.47619 4.19671 2.47619H7.9729C8.11561 1.77706 8.49549 1.14871 9.04824 0.697477C9.601 0.246247 10.2927 -0.000145569 11.0062 6.45223e-08ZM12.7519 2.47619C12.6246 2.11489 12.3883 1.80199 12.0756 1.58066C11.763 1.35933 11.3893 1.24047 11.0062 1.24047C10.6231 1.24047 10.2495 1.35933 9.93682 1.58066C9.62415 1.80199 9.38785 2.11489 9.26052 2.47619H12.7519ZM4.19671 3.71429C3.53998 3.71429 2.91015 3.97517 2.44578 4.43955C1.9814 4.90392 1.72052 5.53375 1.72052 6.19048V22.2857C1.72052 22.9424 1.9814 23.5723 2.44578 24.0366C2.91015 24.501 3.53998 24.7619 4.19671 24.7619H17.8158C18.4725 24.7619 19.1023 24.501 19.5667 24.0366C20.0311 23.5723 20.2919 22.9424 20.2919 22.2857V6.19048C20.2919 5.53375 20.0311 4.90392 19.5667 4.43955C19.1023 3.97517 18.4725 3.71429 17.8158 3.71429H16.5777V7.42857H5.4348V3.71429H4.19671ZM6.6729 3.71429V6.19048H15.3396V3.71429H6.6729Z" fill="black"/>
</svg>
