<svg width="28" height="18" viewBox="0 0 28 18" fill="none" xmlns="http://www.w3.org/2000/svg">
<path d="M13.6818 14.1429H14.6045V13.1143C15.1985 13.0286 15.7025 12.7821 16.1165 12.375C16.5306 11.9679 16.7372 11.4429 16.7364 10.8C16.7364 10.2429 16.5242 9.77657 16.1 9.40114C15.6758 9.02571 15.1879 8.72057 14.6364 8.48571V6.10714C14.8485 6.17143 15.0237 6.27857 15.162 6.42857C15.3003 6.57857 15.4008 6.76071 15.4636 6.975L16.6091 6.49286C16.4606 6.04286 16.2061 5.68414 15.8455 5.41671C15.4848 5.14929 15.0818 4.97229 14.6364 4.88571V3.85714H13.6818V4.85357C13.0879 4.91786 12.5839 5.13771 12.1698 5.51314C11.7558 5.88857 11.5492 6.38657 11.55 7.00714C11.55 7.58571 11.7676 8.06786 12.2029 8.45357C12.6382 8.83928 13.1312 9.15 13.6818 9.38571V11.925C13.3424 11.8179 13.0561 11.6357 12.8227 11.3786C12.5894 11.1214 12.4303 10.8214 12.3455 10.4786L11.2318 10.9607C11.4015 11.5607 11.6985 12.0536 12.1227 12.4393C12.547 12.825 13.0667 13.0607 13.6818 13.1464V14.1429ZM14.6364 11.8929V9.77143C14.8697 9.87857 15.0767 10.0071 15.2575 10.1571C15.4382 10.3071 15.5281 10.5321 15.5273 10.8321C15.5273 11.175 15.4424 11.4163 15.2727 11.556C15.103 11.6957 14.8909 11.808 14.6364 11.8929ZM13.6818 8.06786C13.4485 7.96071 13.2364 7.83214 13.0455 7.68214C12.8545 7.53214 12.7591 7.30714 12.7591 7.00714C12.7591 6.70714 12.8545 6.48729 13.0455 6.34757C13.2364 6.20786 13.4485 6.117 13.6818 6.075V8.06786ZM8.90909 18C6.42727 18 4.32176 17.1266 2.59255 15.3797C0.863334 13.6329 -0.000847861 11.5063 6.24192e-07 9C6.24192e-07 6.49286 0.864607 4.36586 2.59382 2.619C4.32303 0.872144 6.42812 -0.000856512 8.90909 6.30561e-07H19.0909C21.5727 6.30561e-07 23.6782 0.873429 25.4075 2.62029C27.1367 4.36714 28.0008 6.49371 28 9C28 11.5071 27.1354 13.6341 25.4062 15.381C23.677 17.1279 21.5719 18.0009 19.0909 18H8.90909ZM8.90909 15.4286H19.0909C20.8515 15.4286 22.3525 14.8016 23.5938 13.5476C24.8351 12.2936 25.4554 10.7777 25.4545 9C25.4545 7.22143 24.8339 5.70514 23.5925 4.45114C22.3512 3.19714 20.8507 2.57057 19.0909 2.57143H8.90909C7.14848 2.57143 5.64751 3.19843 4.40618 4.45243C3.16485 5.70643 2.54461 7.22229 2.54545 9C2.54545 10.7786 3.16612 12.2949 4.40745 13.5489C5.64879 14.8029 7.14933 15.4294 8.90909 15.4286Z" fill="black"/>
</svg>
