<svg width="23" height="25" viewBox="0 0 23 25" fill="none" xmlns="http://www.w3.org/2000/svg">
<path d="M11.5009 6.53503C11.8635 6.53503 12.2112 6.38928 12.4676 6.12984C12.724 5.87039 12.868 5.51852 12.868 5.15161C12.868 4.7847 12.724 4.43283 12.4676 4.17338C12.2112 3.91394 11.8635 3.76819 11.5009 3.76819C11.1383 3.76819 10.7906 3.91394 10.5342 4.17338C10.2778 4.43283 10.1338 4.7847 10.1338 5.15161C10.1338 5.51852 10.2778 5.87039 10.5342 6.12984C10.7906 6.38928 11.1383 6.53503 11.5009 6.53503ZM21.3422 18.9269V10.0637H21.4931C22.9579 10.0637 23.5598 8.15829 22.3625 7.30019L12.7672 0.408811C12.3972 0.142874 11.9547 0 11.5009 0C11.0471 0 10.6046 0.142874 10.2347 0.408811L0.6361 7.30019C-0.55798 8.15829 0.0407004 10.062 1.50542 10.062H1.6596V18.9252C0.673826 19.5659 0.0193778 20.6846 0.0193778 21.9576V24.1701C0.0193778 24.3902 0.105782 24.6013 0.259583 24.7569C0.413383 24.9126 0.621981 25 0.839488 25H22.1623C22.3799 25 22.5885 24.9126 22.7423 24.7569C22.8961 24.6013 22.9825 24.3902 22.9825 24.1701V21.9576C22.9825 20.6846 22.3296 19.5659 21.3422 18.9269ZM11.1827 1.76319C11.275 1.69702 11.3853 1.66148 11.4985 1.66148C11.6116 1.66148 11.7219 1.69702 11.8142 1.76319L21.0634 8.40228H1.93516L11.1844 1.76319H11.1827ZM19.6987 10.062V18.3709C19.6081 18.3641 19.5173 18.3607 19.4265 18.3609H16.4183V10.0637L19.6987 10.062ZM3.29982 18.3709V10.0637H6.58026V18.3626H3.57209C3.48024 18.3626 3.38839 18.3659 3.29818 18.3725L3.29982 18.3709ZM3.57373 20.0207H19.4297C20.486 20.0207 21.3422 20.8871 21.3422 21.9576V23.3402H1.6596V21.9576C1.6596 20.8871 2.51743 20.0207 3.57373 20.0207ZM10.6808 18.3609H8.22048V10.0637H10.6808V18.3626V18.3609ZM12.321 18.3609V10.0637H14.7814V18.3626H12.321V18.3609Z" fill="black"/>
</svg>
