<svg width="24" height="22" viewBox="0 0 24 22" fill="none" xmlns="http://www.w3.org/2000/svg">
<path d="M11.9993 4.0385L11.4057 4.59317C11.4817 4.67452 11.5736 4.73938 11.6757 4.78372C11.7779 4.82807 11.888 4.85095 11.9993 4.85095C12.1107 4.85095 12.2208 4.82807 12.323 4.78372C12.4251 4.73938 12.517 4.67452 12.593 4.59317L11.9993 4.0385ZM9.21951 18.3623C7.64868 17.0883 5.81568 15.4168 4.38135 13.587C2.93077 11.7378 1.97852 9.83867 1.97852 8.0945H0.353516C0.353516 10.3879 1.57768 12.6467 3.10193 14.5902C4.64243 16.5543 6.57943 18.3125 8.19577 19.6244L9.21951 18.3623ZM1.97852 8.0945C1.97852 4.94742 3.35218 3.00284 5.05085 2.33659C6.74627 1.67251 9.11768 2.14701 11.4057 4.59317L12.593 3.48384C10.006 0.717005 6.96076 -0.156161 4.45827 0.823172C1.95902 1.80251 0.353516 4.49134 0.353516 8.0945H1.97852ZM15.8018 19.6233C17.4193 18.3114 19.3563 16.5532 20.8968 14.5891C22.421 12.6456 23.6452 10.3868 23.6452 8.09234H22.0202C22.0202 9.83867 21.0668 11.7367 19.6173 13.5859C18.183 15.4157 16.35 17.0873 14.7792 18.3613L15.8018 19.6233ZM23.6452 8.09234C23.6452 4.49025 22.0397 1.80142 19.5393 0.823172C17.0368 -0.157245 13.9927 0.714838 11.4057 3.48275L12.593 4.59317C14.881 2.14701 17.2524 1.67142 18.9478 2.33551C20.6465 3.00067 22.0202 4.94634 22.0202 8.09234H23.6452ZM8.19577 19.6244C9.5716 20.7424 10.5282 21.5625 11.9993 21.5625V19.9375C11.2161 19.9375 10.7286 19.5865 9.21951 18.3623L8.19577 19.6244ZM14.7792 18.3613C13.2701 19.5854 12.7826 19.9375 11.9993 19.9375V21.5625C13.4705 21.5625 14.4271 20.7424 15.8029 19.6244L14.7792 18.3613Z" fill="black"/>
<path d="M19.0404 7.75004H16.8737M16.8737 7.75004H14.707M16.8737 7.75004V5.58337M16.8737 7.75004V9.91671" stroke="black" stroke-width="1.5" stroke-linecap="round"/>
</svg>
