<svg width="26" height="18" viewBox="0 0 26 18" fill="none" xmlns="http://www.w3.org/2000/svg">
<path d="M17.8886 17.1021C17.6551 17.1021 17.4312 17.0094 17.2661 16.8443C17.101 16.6792 17.0083 16.4553 17.0083 16.2218C17.0083 15.9884 17.101 15.7644 17.2661 15.5994C17.4312 15.4343 17.6551 15.3415 17.8886 15.3415H21.6807C22.0927 15.3414 22.4985 15.2419 22.8638 15.0513C23.229 14.8608 23.5429 14.5849 23.7787 14.2471C24.0146 13.9093 24.1654 13.5196 24.2184 13.1111C24.2714 12.7025 24.2249 12.2872 24.0831 11.9005C23.9412 11.5137 23.7081 11.1669 23.4035 10.8895C23.099 10.6121 22.7319 10.4123 22.3336 10.3071C21.9353 10.2019 21.5175 10.1944 21.1157 10.2852C20.7138 10.376 20.3399 10.5625 20.0255 10.8287L20.0294 10.8258C19.8503 10.9692 19.6224 11.037 19.394 11.015C19.1657 10.993 18.955 10.8828 18.8066 10.7078C18.6582 10.5329 18.5839 10.307 18.5995 10.0781C18.615 9.84923 18.7192 9.63544 18.8898 9.48216L18.8908 9.48119C19.4701 8.98968 20.1694 8.66055 20.9174 8.52737L20.9436 8.5235C20.9341 7.07156 20.4605 5.6607 19.592 4.49716C18.7234 3.33363 17.5054 2.47844 16.1161 2.05661C14.7267 1.63478 13.2389 1.66843 11.87 2.15265C10.5012 2.63686 9.32309 3.54624 8.50802 4.74785L8.49254 4.77204C9.15822 5.0087 9.7795 5.35531 10.3305 5.79745L10.318 5.78777C10.4615 5.9011 10.5662 6.05629 10.6176 6.2318C10.669 6.40732 10.6645 6.59448 10.6048 6.76733C10.545 6.94019 10.433 7.09017 10.2842 7.19649C10.1354 7.30282 9.95719 7.36021 9.77431 7.36072C9.57104 7.36114 9.37399 7.29067 9.2171 7.16144L9.21904 7.16241C8.41269 6.50926 7.40588 6.15396 6.3682 6.15634H6.35465C5.13701 6.15634 3.9702 6.64005 3.1092 7.50106C2.24819 8.36206 1.76448 9.52983 1.76448 10.7475C1.76448 11.9651 2.24819 13.1329 3.1092 13.9939C3.9702 14.8549 5.13798 15.3386 6.35562 15.3386H8.38033C8.6138 15.3386 8.83771 15.4314 9.0028 15.5965C9.16789 15.7615 9.26063 15.9855 9.26063 16.2189C9.26063 16.4524 9.16789 16.6763 9.0028 16.8414C8.83771 17.0065 8.6138 17.0992 8.38033 17.0992H6.35272C4.66787 17.0992 3.05203 16.4299 1.86067 15.2386C0.669302 14.0472 0 12.4314 0 10.7465C0 9.06167 0.669302 7.44583 1.86067 6.25446C3.05203 5.0631 4.66787 4.39379 6.35272 4.39379C6.45139 4.39379 6.54813 4.40153 6.64777 4.40637C8.14042 1.75868 10.9342 0 14.1381 0C16.4108 0.000256448 18.5903 0.903107 20.1973 2.51002C21.8044 4.11692 22.7075 6.29632 22.708 8.56896V8.58638C24.6118 9.06426 26 10.7601 26 12.7809C25.9997 13.9261 25.5447 15.0243 24.7349 15.8341C23.9251 16.6439 22.8269 17.099 21.6817 17.0992L17.8886 17.1021ZM12.1173 16.2218V12.1714L11.1219 13.1678C10.9566 13.3329 10.7326 13.4256 10.499 13.4255C10.2654 13.4255 10.0415 13.3326 9.87636 13.1674C9.71127 13.0021 9.61856 12.7781 9.61866 12.5445C9.61875 12.3109 9.71162 12.087 9.87685 11.9219L12.3756 9.42218C12.4306 9.3686 12.4924 9.32243 12.5594 9.28482L12.5642 9.28288C12.5806 9.27321 12.5971 9.26547 12.6135 9.25773C12.6765 9.22393 12.7434 9.19825 12.8128 9.18131L12.8186 9.18034H12.8283C12.9033 9.16663 12.9797 9.16306 13.0556 9.1697H13.0527H13.0624C13.0788 9.1697 13.0953 9.17163 13.1108 9.1755H13.1098C13.193 9.18518 13.2684 9.20452 13.34 9.23451L13.3342 9.23258C13.382 9.25314 13.428 9.27774 13.4716 9.3061L13.4687 9.30416C13.4822 9.3119 13.4929 9.32158 13.5055 9.32932C13.5387 9.35308 13.5703 9.37893 13.6003 9.4067L13.6215 9.42412L16.1222 11.9238C16.204 12.0056 16.2689 12.1026 16.3132 12.2094C16.3575 12.3163 16.3803 12.4308 16.3804 12.5464C16.3804 12.6621 16.3577 12.7766 16.3135 12.8835C16.2693 12.9904 16.2044 13.0875 16.1227 13.1693C16.0409 13.2511 15.9439 13.316 15.837 13.3603C15.7302 13.4046 15.6157 13.4274 15.5 13.4275C15.3844 13.4275 15.2698 13.4048 15.163 13.3606C15.0561 13.3164 14.959 13.2515 14.8772 13.1698L13.8808 12.1734V16.2267C13.8808 16.4601 13.788 16.684 13.623 16.8491C13.4579 17.0142 13.234 17.107 13.0005 17.107C12.767 17.107 12.5431 17.0142 12.378 16.8491C12.2129 16.684 12.1202 16.4601 12.1202 16.2267L12.1173 16.2218Z" fill="black"/>
</svg>
