<svg width="26" height="26" viewBox="0 0 26 26" fill="none" xmlns="http://www.w3.org/2000/svg">
<path d="M26 16.2501V26H13V16.2501H16.25V13.0002H22.75V16.2501H26ZM17.875 16.2501H21.125V14.6252H17.875V16.2501ZM24.375 21.1251H22.75V22.75H21.125V21.1251H17.875V22.75H16.25V21.1251H14.625V24.375H24.375V21.1251ZM24.375 17.8751H14.625V19.5001H24.375V17.8751ZM19.8682 11.3752C19.4111 10.859 18.8695 10.4612 18.2432 10.1819C17.6169 9.90259 16.9525 9.75871 16.25 9.75025C15.5729 9.75025 14.9424 9.8772 14.3584 10.1311C13.7744 10.385 13.2581 10.732 12.8096 11.1721C12.361 11.6122 12.0098 12.1327 11.7559 12.7336C11.502 13.3345 11.375 13.965 11.375 14.6252C11.375 15.4038 11.2015 16.1359 10.8545 16.8214C10.5075 17.507 10.0166 18.0825 9.38184 18.548C9.7627 18.7426 10.1182 18.9669 10.4482 19.2208C10.7783 19.4747 11.0872 19.7625 11.375 20.0841V24.375C11.375 23.7064 11.248 23.0759 10.9941 22.4835C10.7402 21.891 10.3932 21.3747 9.95312 20.9346C9.51302 20.4946 8.99251 20.1433 8.3916 19.881C7.79069 19.6186 7.16016 19.4916 6.5 19.5001C5.82292 19.5001 5.19238 19.6271 4.6084 19.881C4.02441 20.1349 3.50814 20.4819 3.05957 20.922C2.611 21.3621 2.25977 21.8825 2.00586 22.4835C1.75195 23.0844 1.625 23.7149 1.625 24.375H0C0 23.7572 0.0846354 23.1605 0.253906 22.585C0.423177 22.0095 0.664388 21.4636 0.977539 20.9473C1.29069 20.4311 1.67155 19.974 2.12012 19.5763C2.56868 19.1785 3.06803 18.8357 3.61816 18.548C2.99186 18.0909 2.50521 17.5197 2.1582 16.8341C1.8112 16.1486 1.63346 15.4123 1.625 14.6252C1.625 13.9566 1.75195 13.326 2.00586 12.7336C2.25977 12.1412 2.60677 11.6249 3.04688 11.1848C3.48698 10.7447 4.00326 10.3935 4.5957 10.1311C5.18815 9.86874 5.82292 9.74178 6.5 9.75025C7.27865 9.75025 8.01074 9.92375 8.69629 10.2707C9.38184 10.6177 9.95736 11.1086 10.4229 11.7434C10.7445 11.1086 11.1549 10.5416 11.6543 10.0422C12.1536 9.54289 12.7249 9.12819 13.3682 8.79811C12.7419 8.34109 12.2552 7.76981 11.9082 7.08427C11.5612 6.39874 11.3835 5.66242 11.375 4.87532C11.375 4.20671 11.502 3.57619 11.7559 2.98375C12.0098 2.39131 12.3568 1.87504 12.7969 1.43495C13.237 0.994848 13.7533 0.643616 14.3457 0.38125C14.9382 0.118885 15.5729 -0.00806669 16.25 0.000396722C16.9186 0.000396722 17.5492 0.127348 18.1416 0.38125C18.734 0.635153 19.2503 0.982153 19.6904 1.42225C20.1305 1.86235 20.4818 2.38285 20.7441 2.98375C21.0065 3.58465 21.1335 4.21518 21.125 4.87532C21.125 5.65396 20.9515 6.38604 20.6045 7.07158C20.2575 7.75711 19.7666 8.33263 19.1318 8.79811C19.7074 9.08587 20.2279 9.44557 20.6934 9.8772C21.1589 10.3088 21.5524 10.8082 21.874 11.3752H19.8682ZM6.5 17.8751C6.94857 17.8751 7.36751 17.7905 7.75684 17.6212C8.14616 17.452 8.49316 17.2192 8.79785 16.923C9.10254 16.6268 9.33529 16.284 9.49609 15.8947C9.6569 15.5054 9.74154 15.0822 9.75 14.6252C9.75 14.1766 9.66536 13.7577 9.49609 13.3684C9.32682 12.979 9.09408 12.632 8.79785 12.3274C8.50163 12.0227 8.15885 11.7899 7.76953 11.6291C7.38021 11.4683 6.95703 11.3837 6.5 11.3752C6.05143 11.3752 5.63249 11.4599 5.24316 11.6291C4.85384 11.7984 4.50684 12.0311 4.20215 12.3274C3.89746 12.6236 3.66471 12.9663 3.50391 13.3557C3.3431 13.745 3.25846 14.1681 3.25 14.6252C3.25 15.0737 3.33464 15.4927 3.50391 15.882C3.67318 16.2713 3.90592 16.6183 4.20215 16.923C4.49837 17.2277 4.84115 17.4604 5.23047 17.6212C5.61979 17.782 6.04297 17.8667 6.5 17.8751ZM13 4.87532C13 5.32388 13.0846 5.74282 13.2539 6.13214C13.4232 6.52146 13.6559 6.86846 13.9521 7.17314C14.2484 7.47782 14.5911 7.71057 14.9805 7.87137C15.3698 8.03218 15.793 8.11681 16.25 8.12527C16.6986 8.12527 17.1175 8.04064 17.5068 7.87137C17.8962 7.7021 18.2432 7.46936 18.5479 7.17314C18.8525 6.87692 19.0853 6.53415 19.2461 6.14483C19.4069 5.75552 19.4915 5.33235 19.5 4.87532C19.5 4.42676 19.4154 4.00782 19.2461 3.61851C19.0768 3.22919 18.8441 2.88219 18.5479 2.57751C18.2516 2.27282 17.9089 2.04008 17.5195 1.87927C17.1302 1.71847 16.707 1.63384 16.25 1.62537C15.8014 1.62537 15.3825 1.71001 14.9932 1.87927C14.6038 2.04854 14.2568 2.28129 13.9521 2.57751C13.6475 2.87373 13.4147 3.21649 13.2539 3.60581C13.0931 3.99513 13.0085 4.4183 13 4.87532Z" fill="black"/>
</svg>
