<svg width="11" height="11" viewBox="0 0 11 11" fill="none" xmlns="http://www.w3.org/2000/svg">
<path d="M9.96875 2.34375H7.9375V1.9375C7.9375 1.61427 7.8091 1.30427 7.58054 1.07571C7.35198 0.847154 7.04198 0.71875 6.71875 0.71875H4.28125C3.95802 0.71875 3.64802 0.847154 3.41946 1.07571C3.1909 1.30427 3.0625 1.61427 3.0625 1.9375V2.34375H1.03125C0.815762 2.34375 0.609099 2.42935 0.456726 2.58173C0.304352 2.7341 0.21875 2.94076 0.21875 3.15625V9.65625C0.21875 9.87174 0.304352 10.0784 0.456726 10.2308C0.609099 10.3831 0.815762 10.4688 1.03125 10.4688H9.96875C10.1842 10.4688 10.3909 10.3831 10.5433 10.2308C10.6956 10.0784 10.7812 9.87174 10.7812 9.65625V3.15625C10.7812 2.94076 10.6956 2.7341 10.5433 2.58173C10.3909 2.42935 10.1842 2.34375 9.96875 2.34375ZM3.875 1.9375C3.875 1.82976 3.9178 1.72642 3.99399 1.65024C4.07017 1.57405 4.17351 1.53125 4.28125 1.53125H6.71875C6.82649 1.53125 6.92983 1.57405 7.00601 1.65024C7.0822 1.72642 7.125 1.82976 7.125 1.9375V2.34375H3.875V1.9375ZM7.125 3.15625V9.65625H3.875V3.15625H7.125ZM1.03125 3.15625H3.0625V9.65625H1.03125V3.15625ZM9.96875 9.65625H7.9375V3.15625H9.96875V9.65625Z" fill="#6C6C6C"/>
</svg>
