<svg width="24" height="24" viewBox="0 0 24 24" fill="none" xmlns="http://www.w3.org/2000/svg">
<path d="M10.117 17.9866H2.88281" stroke="black" stroke-width="1.5" stroke-linecap="round" stroke-linejoin="round"/>
<path fill-rule="evenodd" clip-rule="evenodd" d="M21.1174 17.9867C21.1174 19.5773 19.828 20.8667 18.2374 20.8667C16.6468 20.8667 15.3574 19.5773 15.3574 17.9867C15.3574 16.3949 16.6468 15.1067 18.2374 15.1067C19.828 15.1067 21.1174 16.3949 21.1174 17.9867Z" stroke="black" stroke-width="1.5" stroke-linecap="round" stroke-linejoin="round"/>
<path d="M13.8828 6.26221H21.1181" stroke="black" stroke-width="1.5" stroke-linecap="round" stroke-linejoin="round"/>
<path fill-rule="evenodd" clip-rule="evenodd" d="M2.88281 6.26208C2.88281 7.85385 4.17222 9.14208 5.76281 9.14208C7.3534 9.14208 8.64281 7.85385 8.64281 6.26208C8.64281 4.67149 7.3534 3.38208 5.76281 3.38208C4.17222 3.38208 2.88281 4.67149 2.88281 6.26208Z" stroke="black" stroke-width="1.5" stroke-linecap="round" stroke-linejoin="round"/>
</svg>
