<svg width="746" height="982" viewBox="0 0 746 982" fill="none" xmlns="http://www.w3.org/2000/svg">
<rect width="745.828" height="981.008" transform="translate(0.929688 0.703064)" fill="url(#paint0_linear_4172_1451)"/>
<g filter="url(#filter0_f_4172_1451)">
<path fill-rule="evenodd" clip-rule="evenodd" d="M524.014 403.535C519.531 405.145 511.496 408.647 502.977 410.85C494.28 413.107 495.075 417.632 500.079 424.238C543.596 481.731 550.197 548.009 518.078 603.462C514.922 608.906 510.875 612.377 504.039 611.967C467.872 609.822 431.696 603.107 400.339 579.022C351.851 541.773 352.366 532.013 381.807 491.477C391.028 478.774 403.742 469.792 417.293 461.995C424.889 457.631 432.723 457.579 438.487 466.656C444.179 475.598 440.814 482.327 433.216 486.778C417.127 496.212 403.546 508.277 394.536 525.094C392.299 529.272 389.397 533.208 393.851 538.755C399.592 545.905 405.684 552.811 414.091 556.18C417.937 557.717 418.392 553.04 419.572 550.615C426.127 537.12 436.126 526.952 448.279 518.897C458.266 512.266 467.052 513.411 472.465 521.696C477.544 529.485 475.201 537.16 465.386 543.177C457.241 548.185 450.96 554.894 446.065 563.159C442.805 568.672 442.552 572.5 450.767 574.893C463.327 578.541 475.884 581.408 488.578 583.052C493.39 583.671 496.281 582.316 498.099 577.883C514.261 538.449 519.639 486.141 479.487 437.485C469.848 425.804 459.086 415.921 444.227 412.768C435.103 410.843 428.666 405.837 428.799 395.611C428.915 387.153 436.242 383.073 447.056 385.06C481.787 391.424 511.062 383.137 534.206 360.596C548.204 346.959 555.319 329.186 549.601 307.029C543.929 285.065 525.391 269.555 501.53 266.327C469.586 262.009 446.599 275.723 428.199 297.654C409.554 319.903 400.499 347.902 391.744 376.011C383.347 402.992 376.202 430.565 364.499 455.98C349.18 489.209 327.229 515.731 292.01 528.228C269.895 536.076 246.621 535.83 222.634 525.812C179.795 507.917 157.896 460.008 173.563 418.78C187.154 383.044 216.359 366.561 251.44 357.433C262.141 354.648 273.073 352.559 284.426 352.067C290.096 351.825 291.774 350.019 287.925 344.309C279.513 331.845 273.123 318.8 272.098 304.13C271.655 297.816 265.788 296.086 261.483 293.264C250.327 285.957 246.707 278.833 250.951 271.057C256.043 261.735 264.259 263.683 272.541 269.113C278.203 272.826 282.103 273.219 286.277 268.303C292.227 261.31 300.313 256.897 309.708 255.495C316.106 254.542 318.245 251.627 317.586 244.942C316.647 235.521 318.758 227.708 329.881 228.008C339.188 228.259 344.73 234.888 345.079 247.414C345.324 255.767 348.061 261.316 355.655 266.108C363.924 271.324 369.111 278.788 364.441 288.11C360.563 295.809 353.06 295.69 341.806 288.27C329.338 280.047 317.374 280.536 307.338 289.669C298.931 297.306 297.718 308.41 304.854 321.258C311.421 333.076 318.921 344.457 325.766 356.154C334.829 371.642 330.344 380.757 313.79 380.001C287.454 378.797 262.635 382.471 239.545 392.396C219.367 401.065 204.154 414.691 198.182 436.99C190.029 467.462 209.711 497.436 242.317 503.702C276.821 510.326 301.197 495.474 320.675 471.789C335.054 454.304 343.371 432.945 350.769 411.093C362.37 376.783 369.966 340.523 386.269 308.504C404.845 272.028 431.084 244.553 474.257 238.083C511.507 232.499 549.423 250.507 568.088 283.608C585.507 314.489 581.483 342.435 566.13 368.085C556.973 383.394 543.47 394.022 524.014 403.535Z" fill="#FDB813"/>
</g>
<path fill-rule="evenodd" clip-rule="evenodd" d="M524.014 403.535C519.531 405.145 511.496 408.647 502.977 410.85C494.28 413.107 495.075 417.632 500.079 424.238C543.596 481.731 550.197 548.009 518.078 603.462C514.922 608.906 510.875 612.377 504.039 611.967C467.872 609.822 431.696 603.107 400.339 579.022C351.851 541.773 352.366 532.013 381.807 491.477C391.028 478.774 403.742 469.792 417.293 461.995C424.889 457.631 432.723 457.579 438.487 466.656C444.179 475.598 440.814 482.327 433.216 486.778C417.127 496.212 403.546 508.277 394.536 525.094C392.299 529.272 389.397 533.208 393.851 538.755C399.592 545.905 405.684 552.811 414.091 556.18C417.937 557.717 418.392 553.04 419.572 550.615C426.127 537.12 436.126 526.952 448.279 518.897C458.266 512.266 467.052 513.411 472.465 521.696C477.544 529.485 475.201 537.16 465.386 543.177C457.241 548.185 450.96 554.894 446.065 563.159C442.805 568.672 442.552 572.5 450.767 574.893C463.327 578.541 475.884 581.408 488.578 583.052C493.39 583.671 496.281 582.316 498.099 577.883C514.261 538.449 519.639 486.141 479.487 437.485C469.848 425.804 459.086 415.921 444.227 412.768C435.103 410.843 428.666 405.837 428.799 395.611C428.915 387.153 436.242 383.073 447.056 385.06C481.787 391.424 511.062 383.137 534.206 360.596C548.204 346.959 555.319 329.186 549.601 307.029C543.929 285.065 525.391 269.555 501.53 266.327C469.586 262.009 446.599 275.723 428.199 297.654C409.554 319.903 400.499 347.902 391.744 376.011C383.347 402.992 376.202 430.565 364.499 455.98C349.18 489.209 327.229 515.731 292.01 528.228C269.895 536.076 246.621 535.83 222.634 525.812C179.795 507.917 157.896 460.008 173.563 418.78C187.154 383.044 216.359 366.561 251.44 357.433C262.141 354.648 273.073 352.559 284.426 352.067C290.096 351.825 291.774 350.019 287.925 344.309C279.513 331.845 273.123 318.8 272.098 304.13C271.655 297.816 265.788 296.086 261.483 293.264C250.327 285.957 246.707 278.833 250.951 271.057C256.043 261.735 264.259 263.683 272.541 269.113C278.203 272.826 282.103 273.219 286.277 268.303C292.227 261.31 300.313 256.897 309.708 255.495C316.106 254.542 318.245 251.627 317.586 244.942C316.647 235.521 318.758 227.708 329.881 228.008C339.188 228.259 344.73 234.888 345.079 247.414C345.324 255.767 348.061 261.316 355.655 266.108C363.924 271.324 369.111 278.788 364.441 288.11C360.563 295.809 353.06 295.69 341.806 288.27C329.338 280.047 317.374 280.536 307.338 289.669C298.931 297.306 297.718 308.41 304.854 321.258C311.421 333.076 318.921 344.457 325.766 356.154C334.829 371.642 330.344 380.757 313.79 380.001C287.454 378.797 262.635 382.471 239.545 392.396C219.367 401.065 204.154 414.691 198.182 436.99C190.029 467.462 209.711 497.436 242.317 503.702C276.821 510.326 301.197 495.474 320.675 471.789C335.054 454.304 343.371 432.945 350.769 411.093C362.37 376.783 369.966 340.523 386.269 308.504C404.845 272.028 431.084 244.553 474.257 238.083C511.507 232.499 549.423 250.507 568.088 283.608C585.507 314.489 581.483 342.435 566.13 368.085C556.973 383.394 543.47 394.022 524.014 403.535Z" fill="#FDB813"/>
<path d="M172.988 689.432C172.412 688.376 171.62 687.572 170.612 687.02C169.604 686.468 168.428 686.192 167.084 686.192C165.596 686.192 164.276 686.528 163.124 687.2C161.972 687.872 161.072 688.832 160.424 690.08C159.776 691.328 159.452 692.768 159.452 694.4C159.452 696.08 159.776 697.544 160.424 698.792C161.096 700.04 162.02 701 163.196 701.672C164.372 702.344 165.74 702.68 167.3 702.68C169.22 702.68 170.792 702.176 172.016 701.168C173.24 700.136 174.044 698.708 174.428 696.884H165.788V693.032H179.396V697.424C179.06 699.176 178.34 700.796 177.236 702.284C176.132 703.772 174.704 704.972 172.952 705.884C171.224 706.772 169.28 707.216 167.12 707.216C164.696 707.216 162.5 706.676 160.532 705.596C158.588 704.492 157.052 702.968 155.924 701.024C154.82 699.08 154.268 696.872 154.268 694.4C154.268 691.928 154.82 689.72 155.924 687.776C157.052 685.808 158.588 684.284 160.532 683.204C162.5 682.1 164.684 681.548 167.084 681.548C169.916 681.548 172.376 682.244 174.464 683.636C176.552 685.004 177.992 686.936 178.784 689.432H172.988ZM201.665 696.596C201.665 697.316 201.617 697.964 201.521 698.54H186.941C187.061 699.98 187.565 701.108 188.453 701.924C189.341 702.74 190.433 703.148 191.729 703.148C193.601 703.148 194.933 702.344 195.725 700.736H201.161C200.585 702.656 199.481 704.24 197.849 705.488C196.217 706.712 194.213 707.324 191.837 707.324C189.917 707.324 188.189 706.904 186.653 706.064C185.141 705.2 183.953 703.988 183.089 702.428C182.249 700.868 181.829 699.068 181.829 697.028C181.829 694.964 182.249 693.152 183.089 691.592C183.929 690.032 185.105 688.832 186.617 687.992C188.129 687.152 189.869 686.732 191.837 686.732C193.733 686.732 195.425 687.14 196.913 687.956C198.425 688.772 199.589 689.936 200.405 691.448C201.245 692.936 201.665 694.652 201.665 696.596ZM196.445 695.156C196.421 693.86 195.953 692.828 195.041 692.06C194.129 691.268 193.013 690.872 191.693 690.872C190.445 690.872 189.389 691.256 188.525 692.024C187.685 692.768 187.169 693.812 186.977 695.156H196.445ZM211.211 691.196V700.844C211.211 701.516 211.367 702.008 211.679 702.32C212.015 702.608 212.567 702.752 213.335 702.752H215.675V707H212.507C208.259 707 206.135 704.936 206.135 700.808V691.196H203.759V687.056H206.135V682.124H211.211V687.056H215.675V691.196H211.211ZM232.919 690.152C233.567 689.096 234.407 688.268 235.439 687.668C236.495 687.068 237.695 686.768 239.039 686.768V692.06H237.707C236.123 692.06 234.923 692.432 234.107 693.176C233.315 693.92 232.919 695.216 232.919 697.064V707H227.879V687.056H232.919V690.152ZM260.973 696.596C260.973 697.316 260.925 697.964 260.829 698.54H246.249C246.369 699.98 246.873 701.108 247.761 701.924C248.649 702.74 249.741 703.148 251.037 703.148C252.909 703.148 254.241 702.344 255.033 700.736H260.469C259.893 702.656 258.789 704.24 257.157 705.488C255.525 706.712 253.521 707.324 251.145 707.324C249.225 707.324 247.497 706.904 245.961 706.064C244.449 705.2 243.261 703.988 242.397 702.428C241.557 700.868 241.137 699.068 241.137 697.028C241.137 694.964 241.557 693.152 242.397 691.592C243.237 690.032 244.413 688.832 245.925 687.992C247.437 687.152 249.177 686.732 251.145 686.732C253.041 686.732 254.733 687.14 256.221 687.956C257.733 688.772 258.897 689.936 259.713 691.448C260.553 692.936 260.973 694.652 260.973 696.596ZM255.753 695.156C255.729 693.86 255.261 692.828 254.349 692.06C253.437 691.268 252.321 690.872 251.001 690.872C249.753 690.872 248.697 691.256 247.833 692.024C246.993 692.768 246.477 693.812 246.285 695.156H255.753ZM263.356 696.956C263.356 694.94 263.752 693.152 264.544 691.592C265.36 690.032 266.452 688.832 267.82 687.992C269.212 687.152 270.76 686.732 272.464 686.732C273.952 686.732 275.248 687.032 276.352 687.632C277.48 688.232 278.38 688.988 279.052 689.9V687.056H284.128V707H279.052V704.084C278.404 705.02 277.504 705.8 276.352 706.424C275.224 707.024 273.916 707.324 272.428 707.324C270.748 707.324 269.212 706.892 267.82 706.028C266.452 705.164 265.36 703.952 264.544 702.392C263.752 700.808 263.356 698.996 263.356 696.956ZM279.052 697.028C279.052 695.804 278.812 694.76 278.332 693.896C277.852 693.008 277.204 692.336 276.388 691.88C275.572 691.4 274.696 691.16 273.76 691.16C272.824 691.16 271.96 691.388 271.168 691.844C270.376 692.3 269.728 692.972 269.224 693.86C268.744 694.724 268.504 695.756 268.504 696.956C268.504 698.156 268.744 699.212 269.224 700.124C269.728 701.012 270.376 701.696 271.168 702.176C271.984 702.656 272.848 702.896 273.76 702.896C274.696 702.896 275.572 702.668 276.388 702.212C277.204 701.732 277.852 701.06 278.332 700.196C278.812 699.308 279.052 698.252 279.052 697.028ZM287.754 696.956C287.754 694.94 288.15 693.152 288.942 691.592C289.758 690.032 290.862 688.832 292.254 687.992C293.646 687.152 295.194 686.732 296.898 686.732C298.194 686.732 299.43 687.02 300.606 687.596C301.782 688.148 302.718 688.892 303.414 689.828V680.36H308.526V707H303.414V704.048C302.79 705.032 301.914 705.824 300.786 706.424C299.658 707.024 298.35 707.324 296.862 707.324C295.182 707.324 293.646 706.892 292.254 706.028C290.862 705.164 289.758 703.952 288.942 702.392C288.15 700.808 287.754 698.996 287.754 696.956ZM303.45 697.028C303.45 695.804 303.21 694.76 302.73 693.896C302.25 693.008 301.602 692.336 300.786 691.88C299.97 691.4 299.094 691.16 298.158 691.16C297.222 691.16 296.358 691.388 295.566 691.844C294.774 692.3 294.126 692.972 293.622 693.86C293.142 694.724 292.902 695.756 292.902 696.956C292.902 698.156 293.142 699.212 293.622 700.124C294.126 701.012 294.774 701.696 295.566 702.176C296.382 702.656 297.246 702.896 298.158 702.896C299.094 702.896 299.97 702.668 300.786 702.212C301.602 701.732 302.25 701.06 302.73 700.196C303.21 699.308 303.45 698.252 303.45 697.028ZM332.529 687.056L320.181 716.432H314.817L319.137 706.496L311.145 687.056H316.797L321.945 700.988L327.165 687.056H332.529ZM349.692 691.196V700.844C349.692 701.516 349.848 702.008 350.16 702.32C350.496 702.608 351.048 702.752 351.816 702.752H354.156V707H350.988C346.74 707 344.616 704.936 344.616 700.808V691.196H342.24V687.056H344.616V682.124H349.692V687.056H354.156V691.196H349.692ZM366.637 707.324C364.717 707.324 362.989 706.904 361.453 706.064C359.917 705.2 358.705 703.988 357.817 702.428C356.953 700.868 356.521 699.068 356.521 697.028C356.521 694.988 356.965 693.188 357.853 691.628C358.765 690.068 360.001 688.868 361.561 688.028C363.121 687.164 364.861 686.732 366.781 686.732C368.701 686.732 370.441 687.164 372.001 688.028C373.561 688.868 374.785 690.068 375.673 691.628C376.585 693.188 377.041 694.988 377.041 697.028C377.041 699.068 376.573 700.868 375.637 702.428C374.725 703.988 373.477 705.2 371.893 706.064C370.333 706.904 368.581 707.324 366.637 707.324ZM366.637 702.932C367.549 702.932 368.401 702.716 369.193 702.284C370.009 701.828 370.657 701.156 371.137 700.268C371.617 699.38 371.857 698.3 371.857 697.028C371.857 695.132 371.353 693.68 370.345 692.672C369.361 691.64 368.149 691.124 366.709 691.124C365.269 691.124 364.057 691.64 363.073 692.672C362.113 693.68 361.633 695.132 361.633 697.028C361.633 698.924 362.101 700.388 363.037 701.42C363.997 702.428 365.197 702.932 366.637 702.932ZM416.964 687.056L411.132 707H405.696L402.06 693.068L398.424 707H392.952L387.084 687.056H392.196L395.724 702.248L399.54 687.056H404.868L408.612 702.212L412.14 687.056H416.964ZM422.247 684.68C421.359 684.68 420.615 684.404 420.015 683.852C419.439 683.276 419.151 682.568 419.151 681.728C419.151 680.888 419.439 680.192 420.015 679.64C420.615 679.064 421.359 678.776 422.247 678.776C423.135 678.776 423.867 679.064 424.443 679.64C425.043 680.192 425.343 680.888 425.343 681.728C425.343 682.568 425.043 683.276 424.443 683.852C423.867 684.404 423.135 684.68 422.247 684.68ZM424.731 687.056V707H419.691V687.056H424.731ZM435.579 691.196V700.844C435.579 701.516 435.735 702.008 436.047 702.32C436.383 702.608 436.935 702.752 437.703 702.752H440.043V707H436.875C432.627 707 430.503 704.936 430.503 700.808V691.196H428.127V687.056H430.503V682.124H435.579V687.056H440.043V691.196H435.579ZM454.72 686.768C457.096 686.768 459.016 687.524 460.48 689.036C461.944 690.524 462.676 692.612 462.676 695.3V707H457.636V695.984C457.636 694.4 457.24 693.188 456.448 692.348C455.656 691.484 454.576 691.052 453.208 691.052C451.816 691.052 450.712 691.484 449.896 692.348C449.104 693.188 448.708 694.4 448.708 695.984V707H443.668V687.056H448.708V689.54C449.38 688.676 450.232 688.004 451.264 687.524C452.32 687.02 453.472 686.768 454.72 686.768ZM486.008 696.596C486.008 697.316 485.96 697.964 485.864 698.54H471.284C471.404 699.98 471.908 701.108 472.796 701.924C473.684 702.74 474.776 703.148 476.072 703.148C477.944 703.148 479.276 702.344 480.068 700.736H485.504C484.928 702.656 483.824 704.24 482.192 705.488C480.56 706.712 478.556 707.324 476.18 707.324C474.26 707.324 472.532 706.904 470.996 706.064C469.484 705.2 468.296 703.988 467.432 702.428C466.592 700.868 466.172 699.068 466.172 697.028C466.172 694.964 466.592 693.152 467.432 691.592C468.272 690.032 469.448 688.832 470.96 687.992C472.472 687.152 474.212 686.732 476.18 686.732C478.076 686.732 479.768 687.14 481.256 687.956C482.768 688.772 483.932 689.936 484.748 691.448C485.588 692.936 486.008 694.652 486.008 696.596ZM480.788 695.156C480.764 693.86 480.296 692.828 479.384 692.06C478.472 691.268 477.356 690.872 476.036 690.872C474.788 690.872 473.732 691.256 472.868 692.024C472.028 692.768 471.512 693.812 471.32 695.156H480.788ZM497.319 707.324C495.687 707.324 494.223 707.036 492.927 706.46C491.631 705.86 490.599 705.056 489.831 704.048C489.087 703.04 488.679 701.924 488.607 700.7H493.683C493.779 701.468 494.151 702.104 494.799 702.608C495.471 703.112 496.299 703.364 497.283 703.364C498.243 703.364 498.987 703.172 499.515 702.788C500.067 702.404 500.343 701.912 500.343 701.312C500.343 700.664 500.007 700.184 499.335 699.872C498.687 699.536 497.643 699.176 496.203 698.792C494.715 698.432 493.491 698.06 492.531 697.676C491.595 697.292 490.779 696.704 490.083 695.912C489.411 695.12 489.075 694.052 489.075 692.708C489.075 691.604 489.387 690.596 490.011 689.684C490.659 688.772 491.571 688.052 492.747 687.524C493.947 686.996 495.351 686.732 496.959 686.732C499.335 686.732 501.231 687.332 502.647 688.532C504.063 689.708 504.843 691.304 504.987 693.32H500.163C500.091 692.528 499.755 691.904 499.155 691.448C498.579 690.968 497.799 690.728 496.815 690.728C495.903 690.728 495.195 690.896 494.691 691.232C494.211 691.568 493.971 692.036 493.971 692.636C493.971 693.308 494.307 693.824 494.979 694.184C495.651 694.52 496.695 694.868 498.111 695.228C499.551 695.588 500.739 695.96 501.675 696.344C502.611 696.728 503.415 697.328 504.087 698.144C504.783 698.936 505.143 699.992 505.167 701.312C505.167 702.464 504.843 703.496 504.195 704.408C503.571 705.32 502.659 706.04 501.459 706.568C500.283 707.072 498.903 707.324 497.319 707.324ZM516.936 707.324C515.304 707.324 513.84 707.036 512.544 706.46C511.248 705.86 510.216 705.056 509.448 704.048C508.704 703.04 508.296 701.924 508.224 700.7H513.3C513.396 701.468 513.768 702.104 514.416 702.608C515.088 703.112 515.916 703.364 516.9 703.364C517.86 703.364 518.604 703.172 519.132 702.788C519.684 702.404 519.96 701.912 519.96 701.312C519.96 700.664 519.624 700.184 518.952 699.872C518.304 699.536 517.26 699.176 515.82 698.792C514.332 698.432 513.108 698.06 512.148 697.676C511.212 697.292 510.396 696.704 509.7 695.912C509.028 695.12 508.692 694.052 508.692 692.708C508.692 691.604 509.004 690.596 509.628 689.684C510.276 688.772 511.188 688.052 512.364 687.524C513.564 686.996 514.968 686.732 516.576 686.732C518.952 686.732 520.848 687.332 522.264 688.532C523.68 689.708 524.46 691.304 524.604 693.32H519.78C519.708 692.528 519.372 691.904 518.772 691.448C518.196 690.968 517.416 690.728 516.432 690.728C515.52 690.728 514.812 690.896 514.308 691.232C513.828 691.568 513.588 692.036 513.588 692.636C513.588 693.308 513.924 693.824 514.596 694.184C515.268 694.52 516.312 694.868 517.728 695.228C519.168 695.588 520.356 695.96 521.292 696.344C522.228 696.728 523.032 697.328 523.704 698.144C524.4 698.936 524.76 699.992 524.784 701.312C524.784 702.464 524.46 703.496 523.812 704.408C523.188 705.32 522.276 706.04 521.076 706.568C519.9 707.072 518.52 707.324 516.936 707.324ZM543.368 691.196V700.844C543.368 701.516 543.524 702.008 543.836 702.32C544.172 702.608 544.724 702.752 545.492 702.752H547.832V707H544.664C540.416 707 538.292 704.936 538.292 700.808V691.196H535.916V687.056H538.292V682.124H543.368V687.056H547.832V691.196H543.368ZM562.689 686.768C564.201 686.768 565.545 687.104 566.721 687.776C567.897 688.424 568.809 689.396 569.457 690.692C570.129 691.964 570.465 693.5 570.465 695.3V707H565.425V695.984C565.425 694.4 565.029 693.188 564.237 692.348C563.445 691.484 562.365 691.052 560.997 691.052C559.605 691.052 558.501 691.484 557.685 692.348C556.893 693.188 556.497 694.4 556.497 695.984V707H551.457V680.36H556.497V689.54C557.145 688.676 558.009 688.004 559.089 687.524C560.169 687.02 561.369 686.768 562.689 686.768ZM593.797 696.596C593.797 697.316 593.749 697.964 593.653 698.54H579.073C579.193 699.98 579.697 701.108 580.585 701.924C581.473 702.74 582.565 703.148 583.861 703.148C585.733 703.148 587.065 702.344 587.857 700.736H593.293C592.717 702.656 591.613 704.24 589.981 705.488C588.349 706.712 586.345 707.324 583.969 707.324C582.049 707.324 580.321 706.904 578.785 706.064C577.273 705.2 576.085 703.988 575.221 702.428C574.381 700.868 573.961 699.068 573.961 697.028C573.961 694.964 574.381 693.152 575.221 691.592C576.061 690.032 577.237 688.832 578.749 687.992C580.261 687.152 582.001 686.732 583.969 686.732C585.865 686.732 587.557 687.14 589.045 687.956C590.557 688.772 591.721 689.936 592.537 691.448C593.377 692.936 593.797 694.652 593.797 696.596ZM588.577 695.156C588.553 693.86 588.085 692.828 587.173 692.06C586.261 691.268 585.145 690.872 583.825 690.872C582.577 690.872 581.521 691.256 580.657 692.024C579.817 692.768 579.301 693.812 579.109 695.156H588.577ZM213.068 727.056L200.72 756.432H195.356L199.676 746.496L191.684 727.056H197.336L202.484 740.988L207.704 727.056H213.068ZM224.641 747.324C222.721 747.324 220.993 746.904 219.457 746.064C217.921 745.2 216.709 743.988 215.821 742.428C214.957 740.868 214.525 739.068 214.525 737.028C214.525 734.988 214.969 733.188 215.857 731.628C216.769 730.068 218.005 728.868 219.565 728.028C221.125 727.164 222.865 726.732 224.785 726.732C226.705 726.732 228.445 727.164 230.005 728.028C231.565 728.868 232.789 730.068 233.677 731.628C234.589 733.188 235.045 734.988 235.045 737.028C235.045 739.068 234.577 740.868 233.641 742.428C232.729 743.988 231.481 745.2 229.897 746.064C228.337 746.904 226.585 747.324 224.641 747.324ZM224.641 742.932C225.553 742.932 226.405 742.716 227.197 742.284C228.013 741.828 228.661 741.156 229.141 740.268C229.621 739.38 229.861 738.3 229.861 737.028C229.861 735.132 229.357 733.68 228.349 732.672C227.365 731.64 226.153 731.124 224.713 731.124C223.273 731.124 222.061 731.64 221.077 732.672C220.117 733.68 219.637 735.132 219.637 737.028C219.637 738.924 220.105 740.388 221.041 741.42C222.001 742.428 223.201 742.932 224.641 742.932ZM257.57 727.056V747H252.494V744.48C251.846 745.344 250.994 746.028 249.938 746.532C248.906 747.012 247.778 747.252 246.554 747.252C244.994 747.252 243.614 746.928 242.414 746.28C241.214 745.608 240.266 744.636 239.57 743.364C238.898 742.068 238.562 740.532 238.562 738.756V727.056H243.602V738.036C243.602 739.62 243.998 740.844 244.79 741.708C245.582 742.548 246.662 742.968 248.03 742.968C249.422 742.968 250.514 742.548 251.306 741.708C252.098 740.844 252.494 739.62 252.494 738.036V727.056H257.57ZM267.583 730.152C268.231 729.096 269.071 728.268 270.103 727.668C271.159 727.068 272.359 726.768 273.703 726.768V732.06H272.371C270.787 732.06 269.587 732.432 268.771 733.176C267.979 733.92 267.583 735.216 267.583 737.064V747H262.543V727.056H267.583V730.152Z" fill="white"/>
<path d="M293.307 747.324C291.675 747.324 290.211 747.036 288.915 746.46C287.619 745.86 286.587 745.056 285.819 744.048C285.075 743.04 284.667 741.924 284.595 740.7H289.671C289.767 741.468 290.139 742.104 290.787 742.608C291.459 743.112 292.287 743.364 293.271 743.364C294.231 743.364 294.975 743.172 295.503 742.788C296.055 742.404 296.331 741.912 296.331 741.312C296.331 740.664 295.995 740.184 295.323 739.872C294.675 739.536 293.631 739.176 292.191 738.792C290.703 738.432 289.479 738.06 288.519 737.676C287.583 737.292 286.767 736.704 286.071 735.912C285.399 735.12 285.063 734.052 285.063 732.708C285.063 731.604 285.375 730.596 285.999 729.684C286.647 728.772 287.559 728.052 288.735 727.524C289.935 726.996 291.339 726.732 292.947 726.732C295.323 726.732 297.219 727.332 298.635 728.532C300.051 729.708 300.831 731.304 300.975 733.32H296.151C296.079 732.528 295.743 731.904 295.143 731.448C294.567 730.968 293.787 730.728 292.803 730.728C291.891 730.728 291.183 730.896 290.679 731.232C290.199 731.568 289.959 732.036 289.959 732.636C289.959 733.308 290.295 733.824 290.967 734.184C291.639 734.52 292.683 734.868 294.099 735.228C295.539 735.588 296.727 735.96 297.663 736.344C298.599 736.728 299.403 737.328 300.075 738.144C300.771 738.936 301.131 739.992 301.155 741.312C301.155 742.464 300.831 743.496 300.183 744.408C299.559 745.32 298.647 746.04 297.447 746.568C296.271 747.072 294.891 747.324 293.307 747.324ZM311.161 731.196V740.844C311.161 741.516 311.317 742.008 311.629 742.32C311.965 742.608 312.517 742.752 313.285 742.752H315.625V747H312.457C308.209 747 306.085 744.936 306.085 740.808V731.196H303.709V727.056H306.085V722.124H311.161V727.056H315.625V731.196H311.161ZM317.954 736.956C317.954 734.94 318.35 733.152 319.142 731.592C319.958 730.032 321.05 728.832 322.418 727.992C323.81 727.152 325.358 726.732 327.062 726.732C328.55 726.732 329.846 727.032 330.95 727.632C332.078 728.232 332.978 728.988 333.65 729.9V727.056H338.726V747H333.65V744.084C333.002 745.02 332.102 745.8 330.95 746.424C329.822 747.024 328.514 747.324 327.026 747.324C325.346 747.324 323.81 746.892 322.418 746.028C321.05 745.164 319.958 743.952 319.142 742.392C318.35 740.808 317.954 738.996 317.954 736.956ZM333.65 737.028C333.65 735.804 333.41 734.76 332.93 733.896C332.45 733.008 331.802 732.336 330.986 731.88C330.17 731.4 329.294 731.16 328.358 731.16C327.422 731.16 326.558 731.388 325.766 731.844C324.974 732.3 324.326 732.972 323.822 733.86C323.342 734.724 323.102 735.756 323.102 736.956C323.102 738.156 323.342 739.212 323.822 740.124C324.326 741.012 324.974 741.696 325.766 742.176C326.582 742.656 327.446 742.896 328.358 742.896C329.294 742.896 330.17 742.668 330.986 742.212C331.802 741.732 332.45 741.06 332.93 740.196C333.41 739.308 333.65 738.252 333.65 737.028ZM348.688 730.152C349.336 729.096 350.176 728.268 351.208 727.668C352.264 727.068 353.464 726.768 354.808 726.768V732.06H353.476C351.892 732.06 350.692 732.432 349.876 733.176C349.084 733.92 348.688 735.216 348.688 737.064V747H343.648V727.056H348.688V730.152ZM364.071 731.196V740.844C364.071 741.516 364.227 742.008 364.539 742.32C364.875 742.608 365.427 742.752 366.195 742.752H368.535V747H365.367C361.119 747 358.995 744.936 358.995 740.808V731.196H356.619V727.056H358.995V722.124H364.071V727.056H368.535V731.196H364.071ZM390.988 727.056V747H385.912V744.48C385.264 745.344 384.412 746.028 383.356 746.532C382.324 747.012 381.196 747.252 379.972 747.252C378.412 747.252 377.032 746.928 375.832 746.28C374.632 745.608 373.684 744.636 372.988 743.364C372.316 742.068 371.98 740.532 371.98 738.756V727.056H377.02V738.036C377.02 739.62 377.416 740.844 378.208 741.708C379 742.548 380.08 742.968 381.448 742.968C382.84 742.968 383.932 742.548 384.724 741.708C385.516 740.844 385.912 739.62 385.912 738.036V727.056H390.988ZM401.001 729.936C401.649 729.024 402.537 728.268 403.665 727.668C404.817 727.044 406.125 726.732 407.589 726.732C409.293 726.732 410.829 727.152 412.197 727.992C413.589 728.832 414.681 730.032 415.473 731.592C416.289 733.128 416.697 734.916 416.697 736.956C416.697 738.996 416.289 740.808 415.473 742.392C414.681 743.952 413.589 745.164 412.197 746.028C410.829 746.892 409.293 747.324 407.589 747.324C406.125 747.324 404.829 747.024 403.701 746.424C402.597 745.824 401.697 745.068 401.001 744.156V756.504H395.961V727.056H401.001V729.936ZM411.549 736.956C411.549 735.756 411.297 734.724 410.793 733.86C410.313 732.972 409.665 732.3 408.849 731.844C408.057 731.388 407.193 731.16 406.257 731.16C405.345 731.16 404.481 731.4 403.665 731.88C402.873 732.336 402.225 733.008 401.721 733.896C401.241 734.784 401.001 735.828 401.001 737.028C401.001 738.228 401.241 739.272 401.721 740.16C402.225 741.048 402.873 741.732 403.665 742.212C404.481 742.668 405.345 742.896 406.257 742.896C407.193 742.896 408.057 742.656 408.849 742.176C409.665 741.696 410.313 741.012 410.793 740.124C411.297 739.236 411.549 738.18 411.549 736.956ZM436.749 726.732C438.237 726.732 439.545 727.032 440.673 727.632C441.801 728.208 442.689 728.964 443.337 729.9V727.056H448.413V747.144C448.413 748.992 448.041 750.636 447.297 752.076C446.553 753.54 445.437 754.692 443.949 755.532C442.461 756.396 440.661 756.828 438.549 756.828C435.717 756.828 433.389 756.168 431.565 754.848C429.765 753.528 428.745 751.728 428.505 749.448H433.509C433.773 750.36 434.337 751.08 435.201 751.608C436.089 752.16 437.157 752.436 438.405 752.436C439.869 752.436 441.057 751.992 441.969 751.104C442.881 750.24 443.337 748.92 443.337 747.144V744.048C442.689 744.984 441.789 745.764 440.637 746.388C439.509 747.012 438.213 747.324 436.749 747.324C435.069 747.324 433.533 746.892 432.141 746.028C430.749 745.164 429.645 743.952 428.829 742.392C428.037 740.808 427.641 738.996 427.641 736.956C427.641 734.94 428.037 733.152 428.829 731.592C429.645 730.032 430.737 728.832 432.105 727.992C433.497 727.152 435.045 726.732 436.749 726.732ZM443.337 737.028C443.337 735.804 443.097 734.76 442.617 733.896C442.137 733.008 441.489 732.336 440.673 731.88C439.857 731.4 438.981 731.16 438.045 731.16C437.109 731.16 436.245 731.388 435.453 731.844C434.661 732.3 434.013 732.972 433.509 733.86C433.029 734.724 432.789 735.756 432.789 736.956C432.789 738.156 433.029 739.212 433.509 740.124C434.013 741.012 434.661 741.696 435.453 742.176C436.269 742.656 437.133 742.896 438.045 742.896C438.981 742.896 439.857 742.668 440.673 742.212C441.489 741.732 442.137 741.06 442.617 740.196C443.097 739.308 443.337 738.252 443.337 737.028ZM458.376 730.152C459.024 729.096 459.864 728.268 460.896 727.668C461.952 727.068 463.152 726.768 464.496 726.768V732.06H463.164C461.58 732.06 460.38 732.432 459.564 733.176C458.772 733.92 458.376 735.216 458.376 737.064V747H453.336V727.056H458.376V730.152ZM476.746 747.324C474.826 747.324 473.098 746.904 471.562 746.064C470.026 745.2 468.814 743.988 467.926 742.428C467.062 740.868 466.63 739.068 466.63 737.028C466.63 734.988 467.074 733.188 467.962 731.628C468.874 730.068 470.11 728.868 471.67 728.028C473.23 727.164 474.97 726.732 476.89 726.732C478.81 726.732 480.55 727.164 482.11 728.028C483.67 728.868 484.894 730.068 485.782 731.628C486.694 733.188 487.15 734.988 487.15 737.028C487.15 739.068 486.682 740.868 485.746 742.428C484.834 743.988 483.586 745.2 482.002 746.064C480.442 746.904 478.69 747.324 476.746 747.324ZM476.746 742.932C477.658 742.932 478.51 742.716 479.302 742.284C480.118 741.828 480.766 741.156 481.246 740.268C481.726 739.38 481.966 738.3 481.966 737.028C481.966 735.132 481.462 733.68 480.454 732.672C479.47 731.64 478.258 731.124 476.818 731.124C475.378 731.124 474.166 731.64 473.182 732.672C472.222 733.68 471.742 735.132 471.742 737.028C471.742 738.924 472.21 740.388 473.146 741.42C474.106 742.428 475.306 742.932 476.746 742.932ZM518.495 727.056L512.663 747H507.227L503.591 733.068L499.955 747H494.483L488.615 727.056H493.727L497.255 742.248L501.071 727.056H506.399L510.143 742.212L513.671 727.056H518.495ZM527.09 731.196V740.844C527.09 741.516 527.246 742.008 527.558 742.32C527.894 742.608 528.446 742.752 529.214 742.752H531.554V747H528.386C524.138 747 522.014 744.936 522.014 740.808V731.196H519.638V727.056H522.014V722.124H527.09V727.056H531.554V731.196H527.09ZM546.411 726.768C547.923 726.768 549.267 727.104 550.443 727.776C551.619 728.424 552.531 729.396 553.179 730.692C553.851 731.964 554.187 733.5 554.187 735.3V747H549.147V735.984C549.147 734.4 548.751 733.188 547.959 732.348C547.167 731.484 546.087 731.052 544.719 731.052C543.327 731.052 542.223 731.484 541.407 732.348C540.615 733.188 540.219 734.4 540.219 735.984V747H535.179V720.36H540.219V729.54C540.867 728.676 541.731 728.004 542.811 727.524C543.891 727.02 545.091 726.768 546.411 726.768Z" fill="#FDB813"/>
<defs>
<filter id="filter0_f_4172_1451" x="164.5" y="224" width="419" height="392" filterUnits="userSpaceOnUse" color-interpolation-filters="sRGB">
<feFlood flood-opacity="0" result="BackgroundImageFix"/>
<feBlend mode="normal" in="SourceGraphic" in2="BackgroundImageFix" result="shape"/>
<feGaussianBlur stdDeviation="2" result="effect1_foregroundBlur_4172_1451"/>
</filter>
<linearGradient id="paint0_linear_4172_1451" x1="26.0703" y1="25.297" x2="746.07" y2="965.797" gradientUnits="userSpaceOnUse">
<stop stop-color="#2554AE"/>
<stop offset="1" stop-color="#4484BA"/>
</linearGradient>
</defs>
</svg>
