<svg width="725" height="678" viewBox="0 0 725 678" fill="none" xmlns="http://www.w3.org/2000/svg">
<path fill-rule="evenodd" clip-rule="evenodd" d="M97.877 368.072C105.785 365.229 119.959 359.046 134.986 355.155C150.327 351.171 148.924 343.18 140.099 331.517C63.3346 230.006 51.6896 112.985 108.348 15.0745C113.914 5.4632 121.054 -0.66571 133.112 0.0578003C196.91 3.8457 260.726 15.7015 316.039 58.2272C401.571 123.995 400.663 141.227 348.728 212.799C332.462 235.228 310.036 251.087 286.132 264.852C272.732 272.557 258.913 272.65 248.746 256.624C238.705 240.835 244.64 228.954 258.043 221.095C286.425 204.439 310.38 183.136 326.275 153.443C330.22 146.067 335.339 139.118 327.483 129.323C317.357 116.699 306.609 104.506 291.78 98.5568C284.995 95.8428 284.193 104.1 282.111 108.383C270.548 132.211 252.91 150.163 231.473 164.386C213.856 176.093 198.357 174.071 188.808 159.443C179.849 145.69 183.982 132.14 201.296 121.516C215.664 112.673 226.743 100.827 235.378 86.2347C241.128 76.5012 241.576 69.7421 227.084 65.5169C204.927 59.0761 182.777 54.0148 160.385 51.1112C151.897 50.0179 146.798 52.4103 143.59 60.237C115.082 129.863 105.594 222.221 176.422 308.127C193.426 328.752 212.409 346.203 238.62 351.769C254.715 355.168 266.07 364.007 265.835 382.063C265.63 396.996 252.705 404.199 233.63 400.69C172.364 389.455 120.723 404.086 79.8976 443.885C55.2049 467.963 42.6555 499.344 52.7408 538.464C62.7476 577.244 95.447 604.629 137.539 610.33C193.886 617.953 234.436 593.739 266.893 555.018C299.783 515.733 315.756 466.297 331.199 416.669C346.012 369.03 358.616 320.347 379.26 275.473C406.282 216.802 445.004 169.974 507.129 147.909C546.141 134.053 587.196 134.487 629.508 152.176C705.075 183.772 743.706 268.361 716.07 341.154C692.095 404.25 640.578 433.354 578.694 449.47C559.817 454.387 540.534 458.075 520.507 458.943C510.505 459.371 507.545 462.561 514.336 472.642C529.174 494.649 540.445 517.682 542.254 543.583C543.036 554.732 553.386 557.786 560.978 562.769C580.657 575.669 587.043 588.249 579.557 601.977C570.575 618.436 556.082 614.997 541.472 605.409C531.485 598.854 524.605 598.161 517.242 606.841C506.747 619.187 492.484 626.978 475.911 629.454C464.625 631.136 460.851 636.284 462.014 648.086C463.67 664.72 459.946 678.516 440.326 677.985C423.909 677.543 414.131 665.839 413.517 643.723C413.085 628.973 408.256 619.176 394.861 610.715C380.274 601.506 371.124 588.328 379.363 571.868C386.202 558.275 399.439 558.484 419.291 571.586C441.284 586.105 462.387 585.24 480.091 569.115C494.922 555.632 497.061 536.027 484.472 513.341C472.888 492.475 459.658 472.381 447.583 451.728C431.597 424.383 439.508 408.289 468.71 409.623C515.166 411.749 558.947 405.263 599.677 387.738C635.271 372.432 662.107 348.373 672.641 309.002C687.024 255.199 652.304 202.278 594.787 191.213C533.923 179.518 490.924 205.741 456.564 247.559C431.2 278.432 416.529 316.144 403.479 354.727C383.015 415.305 369.615 479.327 340.858 535.86C308.09 600.263 261.804 648.774 185.648 660.198C119.938 670.057 53.0548 638.261 20.1301 579.818C-10.5966 525.293 -3.49768 475.95 23.584 430.663C39.7375 403.633 63.5565 384.867 97.877 368.072Z" fill="#091C41" fill-opacity="0.88"/>
</svg>
