<svg width="339" height="320" viewBox="0 0 339 320" fill="none" xmlns="http://www.w3.org/2000/svg">
<path d="M217.87 -32.5416L254.037 -53.4228L290.204 -32.5416V9.22063L254.037 30.1018L217.87 9.22063V-32.5416Z" stroke="#FDB813" stroke-opacity="0.5"/>
<path d="M133.192 112.119L169.359 91.2378L205.526 112.119V153.881L169.359 174.762L133.192 153.881V112.119Z" stroke="#FDB813" stroke-opacity="0.5"/>
<path d="M217.872 112.119L254.039 91.2379L290.206 112.119V153.881L254.039 174.762L217.872 153.881V112.119Z" stroke="#FDB813" stroke-opacity="0.5"/>
<path d="M217.872 112.119L254.039 91.2379L290.206 112.119V153.881L254.039 174.762L217.872 153.881V112.119Z" stroke="#FDB813" stroke-opacity="0.5"/>
<path d="M133.192 112.119L169.359 91.2378L205.526 112.119V153.881L169.359 174.762L133.192 153.881V112.119Z" stroke="#FDB813" stroke-opacity="0.5"/>
<path d="M302.551 112.119L338.719 91.2379L374.886 112.119V153.881L338.719 174.762L302.551 153.881V112.119Z" stroke="#FDB813" stroke-opacity="0.5"/>
<path d="M260.211 186.213L296.379 165.332L332.546 186.213V227.976L296.379 248.857L260.211 227.976V186.213Z" stroke="#FDB813" stroke-opacity="0.5"/>
<path d="M175.532 186.213L211.699 165.332L247.866 186.213V227.976L211.699 248.857L175.532 227.976V186.213Z" stroke="#FDB813" stroke-opacity="0.5"/>
<path d="M48.5123 112.119L84.6795 91.2378L120.847 112.119V153.881L84.6795 174.762L48.5123 153.881V112.119Z" stroke="#FDB813" stroke-opacity="0.5"/>
<path d="M90.8521 186.213L127.019 165.332L163.187 186.213V227.976L127.019 248.857L90.8521 227.976V186.213Z" stroke="#FDB813" stroke-opacity="0.5"/>
<path d="M6.17243 186.213L42.3396 165.332L78.5068 186.213V227.976L42.3396 248.857L6.17243 227.976V186.213Z" stroke="#FDB813" stroke-opacity="0.5"/>
<path d="M217.87 256.779L254.037 235.898L290.204 256.779V298.542L254.037 319.423L217.87 298.542V256.779Z" stroke="#FDB813" stroke-opacity="0.5"/>
<path d="M302.549 256.779L338.717 235.898L374.884 256.779V298.542L338.717 319.423L302.549 298.542V256.779Z" stroke="#FDB813" stroke-opacity="0.5"/>
<path d="M302.549 256.779L338.717 235.898L374.884 256.779V298.542L338.717 319.423L302.549 298.542V256.779Z" stroke="#FDB813" stroke-opacity="0.5"/>
<path d="M217.87 256.779L254.037 235.898L290.204 256.779V298.542L254.037 319.423L217.87 298.542V256.779Z" stroke="#FDB813" stroke-opacity="0.5"/>
</svg>
