<svg width="11" height="8" viewBox="0 0 11 8" fill="none" xmlns="http://www.w3.org/2000/svg">
<path d="M7.5 3.42857C8.33 3.42857 8.995 2.66286 8.995 1.71429C8.995 0.765714 8.33 0 7.5 0C6.67 0 6 0.765714 6 1.71429C6 2.66286 6.67 3.42857 7.5 3.42857ZM3.5 3.42857C4.33 3.42857 4.995 2.66286 4.995 1.71429C4.995 0.765714 4.33 0 3.5 0C2.67 0 2 0.765714 2 1.71429C2 2.66286 2.67 3.42857 3.5 3.42857ZM3.5 4.57143C2.335 4.57143 0 5.24 0 6.57143V8H7V6.57143C7 5.24 4.665 4.57143 3.5 4.57143ZM7.5 4.57143C7.355 4.57143 7.19 4.58286 7.015 4.6C7.595 5.08 8 5.72571 8 6.57143V8H11V6.57143C11 5.24 8.665 4.57143 7.5 4.57143Z" fill="#6C6C6C"/>
</svg>
