<svg width="13" height="12" viewBox="0 0 13 12" fill="none" xmlns="http://www.w3.org/2000/svg">
<path d="M5.90502 0.377057C6.13082 -0.125686 6.86918 -0.125686 7.09498 0.377057L8.46087 3.41866C8.55483 3.6279 8.75917 3.77125 8.9943 3.79289L12.4122 4.10737C12.9771 4.15935 13.2053 4.83742 12.7799 5.20008L10.2062 7.39439C10.0291 7.54536 9.95107 7.77729 10.0024 7.9999L10.7489 11.2359C10.8722 11.7708 10.2749 12.1898 9.78623 11.9112L6.82968 10.2258C6.62632 10.1099 6.37367 10.1099 6.17031 10.2258L3.21378 11.9112C2.72509 12.1898 2.12775 11.7708 2.25113 11.2359L2.99756 7.9999C3.04891 7.77729 2.97086 7.54536 2.79381 7.39439L0.220128 5.20008C-0.205268 4.83742 0.0228929 4.15935 0.587828 4.10737L4.00569 3.79289C4.24082 3.77125 4.44516 3.6279 4.53913 3.41866L5.90502 0.377057Z" fill="#FFC542"/>
</svg>
