<svg width="29" height="29" viewBox="0 0 29 29" fill="none" xmlns="http://www.w3.org/2000/svg">
<circle cx="14.5" cy="14.5" r="14.5" fill="#FDB813"/>
<path d="M10.816 18.832C12.1707 17.744 13.232 16.8533 14 16.16C14.768 15.456 15.4133 14.7253 15.936 13.968C16.4693 13.2 16.736 12.448 16.736 11.712C16.736 11.0187 16.5653 10.4747 16.224 10.08C15.8933 9.67467 15.3547 9.472 14.608 9.472C13.8827 9.472 13.3173 9.70133 12.912 10.16C12.5173 10.608 12.304 11.2107 12.272 11.968H10.864C10.9067 10.7733 11.2693 9.85067 11.952 9.2C12.6347 8.54933 13.5147 8.224 14.592 8.224C15.6907 8.224 16.56 8.528 17.2 9.136C17.8507 9.744 18.176 10.5813 18.176 11.648C18.176 12.5333 17.9093 13.3973 17.376 14.24C16.8533 15.072 16.256 15.808 15.584 16.448C14.912 17.0773 14.0533 17.8133 13.008 18.656H18.512V19.872H10.816V18.832Z" fill="black"/>
</svg>
