<svg width="16" height="16" viewBox="0 0 16 16" fill="none" xmlns="http://www.w3.org/2000/svg">
<path d="M8.2426 10.475L10.1985 8.525C10.3364 8.3875 10.4054 8.2125 10.4054 8C10.4054 7.7875 10.3364 7.6125 10.1985 7.475L8.2238 5.50625C8.08588 5.36875 7.91361 5.303 7.70699 5.309C7.49987 5.3155 7.32735 5.3875 7.18943 5.525C7.05152 5.6625 6.98256 5.8375 6.98256 6.05C6.98256 6.2625 7.05152 6.4375 7.18943 6.575L7.86647 7.25H5.44041C5.22727 7.25 5.05174 7.32175 4.91383 7.46525C4.77591 7.60925 4.70695 7.7875 4.70695 8C4.70695 8.2125 4.77917 8.3905 4.92361 8.534C5.06754 8.678 5.24608 8.75 5.45922 8.75H7.86647L7.17063 9.44375C7.03271 9.58125 6.96676 9.75325 6.97278 9.95975C6.9793 10.1657 7.05152 10.3375 7.18943 10.475C7.32735 10.6125 7.50288 10.6812 7.71602 10.6812C7.92916 10.6812 8.10469 10.6125 8.2426 10.475ZM7.71602 15.5C6.67538 15.5 5.69744 15.303 4.78218 14.909C3.86692 14.5155 3.07078 13.9813 2.39374 13.3063C1.7167 12.6313 1.18083 11.8375 0.786145 10.925C0.390955 10.0125 0.193359 9.0375 0.193359 8C0.193359 6.9625 0.390955 5.9875 0.786145 5.075C1.18083 4.1625 1.7167 3.36875 2.39374 2.69375C3.07078 2.01875 3.86692 1.48425 4.78218 1.09025C5.69744 0.69675 6.67538 0.5 7.71602 0.5C8.75665 0.5 9.7346 0.69675 10.6499 1.09025C11.5651 1.48425 12.3613 2.01875 13.0383 2.69375C13.7153 3.36875 14.2512 4.1625 14.6459 5.075C15.0411 5.9875 15.2387 6.9625 15.2387 8C15.2387 9.0375 15.0411 10.0125 14.6459 10.925C14.2512 11.8375 13.7153 12.6313 13.0383 13.3063C12.3613 13.9813 11.5651 14.5155 10.6499 14.909C9.7346 15.303 8.75665 15.5 7.71602 15.5Z" fill="#FDB813"/>
</svg>
