<svg width="21" height="23" viewBox="0 0 21 23" fill="none" xmlns="http://www.w3.org/2000/svg">
<path d="M2.72116 13.1062L3.31768 13.5608L3.31771 13.5608L2.72116 13.1062ZM1.32851 14.9337L0.731984 14.4791L0.731957 14.4791L1.32851 14.9337ZM1.76677 16.9368L2.05998 16.2465L2.05996 16.2465L1.76677 16.9368ZM18.7076 16.9368L18.4144 16.2465L18.4144 16.2465L18.7076 16.9368ZM19.146 14.9337L19.7425 14.4791L19.7425 14.4791L19.146 14.9337ZM17.7533 13.1062L17.1567 13.5607L17.1567 13.5608L17.7533 13.1062ZM7.53302 19.8521L7.59761 19.1049L6.63905 19.022L6.79264 19.9718L7.53302 19.8521ZM12.9451 19.8521L13.6855 19.9718L13.8391 19.022L12.8805 19.1049L12.9451 19.8521ZM4.41066 7.55812C4.41066 4.40875 7.00801 1.83539 10.2372 1.83539V0.335388C6.20217 0.335388 2.91066 3.5579 2.91066 7.55812H4.41066ZM4.41066 10.3321V7.55812H2.91066V10.3321H4.41066ZM3.31771 13.5608C4.02646 12.6306 4.41066 11.4977 4.41066 10.3321H2.91066C2.91066 11.1672 2.63554 11.9811 2.1246 12.6517L3.31771 13.5608ZM1.92504 15.3883L3.31768 13.5608L2.12463 12.6516L0.731984 14.4791L1.92504 15.3883ZM2.05996 16.2465C1.88344 16.1715 1.80363 16.0507 1.77742 15.9201C1.74866 15.7767 1.77943 15.5794 1.92507 15.3882L0.731957 14.4791C-0.0357665 15.4867 0.118524 17.0516 1.47359 17.6271L2.05996 16.2465ZM10.2372 17.596C6.03072 17.596 3.42823 16.8276 2.05998 16.2465L1.47357 17.6271C3.0399 18.2924 5.84339 19.096 10.2372 19.096V17.596ZM18.4144 16.2465C17.0462 16.8276 14.4438 17.596 10.2372 17.596V19.096C14.6311 19.096 17.4346 18.2924 19.0008 17.6271L18.4144 16.2465ZM18.5494 15.3882C18.695 15.5794 18.7258 15.7767 18.697 15.92C18.6708 16.0507 18.591 16.1715 18.4144 16.2465L19.0008 17.6271C20.3559 17.0516 20.5102 15.4867 19.7425 14.4791L18.5494 15.3882ZM17.1567 13.5608L18.5494 15.3883L19.7425 14.4791L18.3498 12.6516L17.1567 13.5608ZM16.0638 10.3321C16.0638 11.4978 16.4481 12.6306 17.1567 13.5607L18.3498 12.6517C17.839 11.9811 17.5638 11.1672 17.5638 10.3321H16.0638ZM16.0638 7.55812V10.3321H17.5638V7.55812H16.0638ZM10.2372 1.83539C13.4664 1.83539 16.0638 4.40875 16.0638 7.55812H17.5638C17.5638 3.5579 14.2723 0.335388 10.2372 0.335388V1.83539ZM6.79264 19.9718C7.05989 21.6244 8.50833 22.8718 10.2391 22.8718V21.3718C9.23856 21.3718 8.42224 20.6527 8.27341 19.7323L6.79264 19.9718ZM10.2391 19.2143C9.27573 19.2143 8.39674 19.1739 7.59761 19.1049L7.46844 20.5993C8.31172 20.6722 9.23383 20.7143 10.2391 20.7143V19.2143ZM12.8805 19.1049C12.0814 19.1739 11.2023 19.2143 10.2391 19.2143V20.7143C11.2442 20.7143 12.1664 20.6722 13.0097 20.5993L12.8805 19.1049ZM10.2391 22.8718C11.9698 22.8718 13.4182 21.6244 13.6855 19.9718L12.2047 19.7323C12.0559 20.6527 11.2396 21.3718 10.2391 21.3718V22.8718Z" fill="white"/>
</svg>
