<svg width="725" height="678" viewBox="0 0 725 678" fill="none" xmlns="http://www.w3.org/2000/svg">
<path fill-rule="evenodd" clip-rule="evenodd" d="M627.123 309.928C619.215 312.771 605.041 318.954 590.014 322.845C574.673 326.829 576.076 334.82 584.901 346.483C661.665 447.994 673.31 565.015 616.652 662.925C611.086 672.537 603.946 678.666 591.888 677.942C528.09 674.154 464.274 662.298 408.961 619.773C323.429 554.005 324.337 536.773 376.272 465.201C392.538 442.772 414.964 426.913 438.868 413.148C452.268 405.443 466.087 405.35 476.254 421.376C486.295 437.165 480.36 449.046 466.957 456.905C438.575 473.561 414.62 494.864 398.725 524.557C394.78 531.933 389.661 538.882 397.517 548.677C407.643 561.301 418.391 573.494 433.22 579.443C440.005 582.157 440.807 573.9 442.889 569.617C454.452 545.789 472.09 527.837 493.527 513.614C511.144 501.907 526.643 503.929 536.192 518.557C545.151 532.31 541.018 545.86 523.704 556.484C509.336 565.327 498.257 577.173 489.622 591.765C483.872 601.499 483.424 608.258 497.916 612.483C520.073 618.924 542.223 623.985 564.615 626.889C573.103 627.982 578.202 625.59 581.41 617.763C609.918 548.137 619.406 455.779 548.578 369.873C531.574 349.248 512.591 331.797 486.38 326.231C470.285 322.832 458.93 313.993 459.165 295.937C459.37 281.004 472.295 273.801 491.37 277.31C552.636 288.545 604.277 273.914 645.102 234.115C669.795 210.037 682.344 178.656 672.259 139.536C662.252 100.756 629.553 73.371 587.461 67.6704C531.114 60.0467 490.564 84.2608 458.107 122.982C425.217 162.267 409.244 211.703 393.801 261.331C378.988 308.97 366.384 357.653 345.74 402.527C318.718 461.198 279.996 508.026 217.871 530.091C178.859 543.947 137.804 543.513 95.4917 525.824C19.925 494.228 -18.7057 409.639 8.93022 336.846C32.9051 273.75 84.4225 244.646 146.306 228.53C165.183 223.613 184.466 219.925 204.493 219.057C214.495 218.629 217.455 215.439 210.664 205.358C195.826 183.351 184.555 160.318 182.746 134.417C181.964 123.268 171.614 120.214 164.022 115.231C144.343 102.331 137.957 89.7514 145.443 76.0229C154.425 59.5637 168.918 63.0031 183.528 72.5909C193.515 79.1461 200.395 79.8394 207.758 71.1593C218.253 58.8132 232.516 51.0219 249.089 48.5459C260.375 46.8639 264.149 41.7161 262.986 29.914C261.33 13.2796 265.054 -0.51606 284.674 0.0148284C301.091 0.456967 310.869 12.1613 311.483 34.2772C311.915 49.027 316.744 58.8238 330.139 67.2849C344.726 76.4939 353.876 89.6722 345.637 106.132C338.798 119.725 325.561 119.516 305.709 106.414C283.716 91.8948 262.613 92.7595 244.909 108.885C230.078 122.368 227.939 141.973 240.528 164.659C252.112 185.525 265.342 205.619 277.417 226.272C293.403 253.617 285.492 269.711 256.29 268.377C209.834 266.251 166.053 272.737 125.323 290.262C89.7292 305.568 62.8926 329.627 52.3589 368.998C37.9764 422.801 72.6959 475.722 130.213 486.787C191.077 498.482 234.076 472.259 268.436 430.441C293.8 399.568 308.471 361.856 321.521 323.273C341.985 262.695 355.385 198.673 384.142 142.14C416.91 77.7368 463.196 29.2262 539.352 17.802C605.062 7.94279 671.945 39.7385 704.87 98.1822C735.597 152.707 728.498 202.05 701.416 247.337C685.263 274.367 661.444 293.133 627.123 309.928Z" fill="#091C41" fill-opacity="0.88"/>
</svg>
