<svg width="426" height="482" viewBox="0 0 426 482" fill="none" xmlns="http://www.w3.org/2000/svg">
<path d="M400.65 247.021L424.518 288L400.963 329.159L353.541 329.34L329.673 288.362L353.228 247.202L400.65 247.021Z" stroke="#FDB813" stroke-opacity="0.5"/>
<path d="M316.834 295.342L340.701 336.32L317.147 377.48L269.725 377.661L245.857 336.682L269.411 295.523L316.834 295.342Z" stroke="#FDB813" stroke-opacity="0.5"/>
<path d="M316.468 199.342L340.336 240.32L316.782 281.48L269.359 281.661L245.492 240.682L269.046 199.523L316.468 199.342Z" stroke="#FDB813" stroke-opacity="0.5"/>
<path d="M316.101 103.342L339.969 144.321L316.414 185.48L268.992 185.661L245.124 144.682L268.679 103.523L316.101 103.342Z" stroke="#FDB813" stroke-opacity="0.5"/>
<path d="M236.287 151.647L260.155 192.626L236.6 233.785L189.178 233.966L165.31 192.988L188.864 151.828L236.287 151.647Z" stroke="#FDB813" stroke-opacity="0.5"/>
<path d="M236.652 247.647L260.52 288.626L236.965 329.785L189.543 329.966L165.675 288.987L189.23 247.828L236.652 247.647Z" stroke="#FDB813" stroke-opacity="0.5"/>
<path d="M236.652 247.647L260.52 288.626L236.965 329.785L189.543 329.966L165.675 288.987L189.23 247.828L236.652 247.647Z" stroke="#FDB813" stroke-opacity="0.5"/>
<path d="M236.287 151.647L260.155 192.626L236.6 233.785L189.178 233.966L165.31 192.988L188.864 151.828L236.287 151.647Z" stroke="#FDB813" stroke-opacity="0.5"/>
<path d="M237.017 343.648L260.885 384.626L237.331 425.786L189.908 425.967L166.04 384.988L189.595 343.829L237.017 343.648Z" stroke="#FDB813" stroke-opacity="0.5"/>
<path d="M153.201 391.968L177.069 432.947L153.514 474.106L106.092 474.287L82.224 433.308L105.779 392.149L153.201 391.968Z" stroke="#FDB813" stroke-opacity="0.5"/>
<path d="M152.836 295.968L176.703 336.946L153.149 378.106L105.727 378.286L81.8588 337.308L105.413 296.149L152.836 295.968Z" stroke="#FDB813" stroke-opacity="0.5"/>
<path d="M152.468 199.968L176.336 240.946L152.782 282.106L105.359 282.287L81.4916 241.308L105.046 200.149L152.468 199.968Z" stroke="#FDB813" stroke-opacity="0.5"/>
<path d="M235.922 55.6479L259.789 96.6264L236.235 137.786L188.813 137.967L164.945 96.9881L188.499 55.8288L235.922 55.6479Z" stroke="#FDB813" stroke-opacity="0.5"/>
<path d="M152.105 103.968L175.973 144.947L152.418 186.106L104.996 186.287L81.1283 145.308L104.683 104.149L152.105 103.968Z" stroke="#FDB813" stroke-opacity="0.5"/>
<path d="M151.738 7.96929L175.606 48.9478L152.051 90.1071L104.629 90.288L80.7611 49.3095L104.316 8.15017L151.738 7.96929Z" stroke="#FDB813" stroke-opacity="0.5"/>
<path d="M72.654 248.271L96.5217 289.249L72.9672 330.409L25.5449 330.59L1.67714 289.611L25.2316 248.452L72.654 248.271Z" stroke="#FDB813" stroke-opacity="0.5"/>
<path d="M73.0192 344.27L96.887 385.249L73.3325 426.408L25.9102 426.589L2.04237 385.611L25.5969 344.451L73.0192 344.27Z" stroke="#FDB813" stroke-opacity="0.5"/>
<path d="M73.0192 344.27L96.887 385.249L73.3325 426.408L25.9102 426.589L2.04237 385.611L25.5969 344.451L73.0192 344.27Z" stroke="#FDB813" stroke-opacity="0.5"/>
<path d="M72.654 248.271L96.5217 289.249L72.9672 330.409L25.5449 330.59L1.67714 289.611L25.2316 248.452L72.654 248.271Z" stroke="#FDB813" stroke-opacity="0.5"/>
</svg>
