<svg width="41" height="40" viewBox="0 0 41 40" fill="none" xmlns="http://www.w3.org/2000/svg">
<circle cx="20.5" cy="20" r="20" fill="#FDB813"/>
<path fill-rule="evenodd" clip-rule="evenodd" d="M20.0341 11C17.7166 11 17.4258 11.0101 16.5155 11.0516C15.6071 11.0932 14.987 11.237 14.4444 11.448C13.8831 11.666 13.407 11.9575 12.9327 12.432C12.4581 12.9063 12.1665 13.3824 11.9478 13.9435C11.7363 14.4863 11.5923 15.1065 11.5514 16.0146C11.5107 16.9249 11.5 17.2159 11.5 19.5334C11.5 21.851 11.5103 22.1409 11.5516 23.0511C11.5933 23.9596 11.7372 24.5797 11.948 25.1223C12.1661 25.6835 12.4577 26.1596 12.9322 26.6339C13.4063 27.1086 13.8824 27.4009 14.4433 27.6188C14.9863 27.8299 15.6065 27.9737 16.5148 28.0153C17.425 28.0567 17.7157 28.0668 20.0331 28.0668C22.3508 28.0668 22.6407 28.0567 23.551 28.0153C24.4594 27.9737 25.0802 27.8299 25.6232 27.6188C26.1842 27.4009 26.6596 27.1086 27.1338 26.6339C27.6084 26.1596 27.9 25.6835 28.1187 25.1225C28.3284 24.5797 28.4724 23.9594 28.5151 23.0513C28.556 22.1411 28.5667 21.851 28.5667 19.5334C28.5667 17.2159 28.556 16.925 28.5151 16.0148C28.4724 15.1064 28.3284 14.4863 28.1187 13.9437C27.9 13.3824 27.6084 12.9063 27.1338 12.432C26.6591 11.9573 26.1844 11.6658 25.6226 11.448C25.0786 11.237 24.4582 11.0932 23.5497 11.0516C22.6395 11.0101 22.3497 11 20.0315 11H20.0341ZM19.2686 12.5378C19.4958 12.5374 19.7493 12.5378 20.0341 12.5378C22.3125 12.5378 22.5826 12.5459 23.4823 12.5868C24.3143 12.6249 24.7659 12.7639 25.0667 12.8807C25.4649 13.0354 25.7488 13.2203 26.0473 13.5189C26.346 13.8176 26.5309 14.1021 26.6859 14.5003C26.8027 14.8007 26.9419 15.2523 26.9798 16.0843C27.0207 16.9839 27.0295 17.2541 27.0295 19.5314C27.0295 21.8088 27.0207 22.079 26.9798 22.9786C26.9417 23.8106 26.8027 24.2622 26.6859 24.5626C26.5312 24.9608 26.346 25.2444 26.0473 25.5429C25.7486 25.8416 25.4651 26.0264 25.0667 26.1811C24.7662 26.2984 24.3143 26.4371 23.4823 26.4752C22.5827 26.5161 22.3125 26.5249 20.0341 26.5249C17.7555 26.5249 17.4854 26.5161 16.5859 26.4752C15.7539 26.4368 15.3023 26.2977 15.0013 26.1809C14.6031 26.0263 14.3187 25.8414 14.02 25.5427C13.7213 25.244 13.5364 24.9603 13.3814 24.5619C13.2646 24.2614 13.1254 23.8099 13.0875 22.9779C13.0466 22.0783 13.0385 21.8081 13.0385 19.5293C13.0385 17.2505 13.0466 16.9817 13.0875 16.0822C13.1256 15.2502 13.2646 14.7986 13.3814 14.4978C13.5361 14.0996 13.7213 13.8151 14.02 13.5164C14.3187 13.2178 14.6031 13.0329 15.0013 12.8779C15.3021 12.7605 15.7539 12.6219 16.5859 12.5836C17.3731 12.5481 17.6782 12.5374 19.2686 12.5356V12.5378ZM24.5892 13.9547C24.0238 13.9547 23.5652 14.4128 23.5652 14.9783C23.5652 15.5437 24.0238 16.0023 24.5892 16.0023C25.1545 16.0023 25.6132 15.5437 25.6132 14.9783C25.6132 14.413 25.1545 13.9547 24.5892 13.9547ZM20.0341 15.1511C17.614 15.1511 15.6519 17.1133 15.6519 19.5334C15.6519 21.9535 17.614 23.9148 20.0341 23.9148C22.4543 23.9148 24.4157 21.9535 24.4157 19.5334C24.4157 17.1133 22.4543 15.1511 20.0341 15.1511ZM20.0341 16.6889C21.605 16.6889 22.8786 17.9624 22.8786 19.5334C22.8786 21.1043 21.605 22.3779 20.0341 22.3779C18.4631 22.3779 17.1896 21.1043 17.1896 19.5334C17.1896 17.9624 18.4631 16.6889 20.0341 16.6889Z" fill="white"/>
</svg>
