<svg width="41" height="40" viewBox="0 0 41 40" fill="none" xmlns="http://www.w3.org/2000/svg">
<circle cx="20.5" cy="20" r="20" fill="#FDB813"/>
<path d="M15.7975 29H11.8768V16.3333H15.7975V29ZM13.8185 14.6745C12.538 14.6745 11.5 13.628 11.5 12.3373C11.5 11.0464 12.5382 10 13.8185 10C15.0988 10 16.1369 11.0464 16.1369 12.3373C16.1369 13.6281 15.0989 14.6745 13.8185 14.6745ZM30.4904 29H26.5887V22.351C26.5887 20.5274 25.896 19.5095 24.454 19.5095C22.8847 19.5095 22.0648 20.5697 22.0648 22.351V29H18.3044V16.3333H22.0648V18.0393C22.0648 18.0393 23.1959 15.9469 25.8818 15.9469C28.5677 15.9469 30.4905 17.5869 30.4905 20.9796L30.4904 29Z" fill="white"/>
</svg>
