<svg width="29" height="28" viewBox="0 0 29 28" fill="none" xmlns="http://www.w3.org/2000/svg">
<path d="M8.78846 14C9.36199 14 9.82692 13.5695 9.82692 13.0384C9.82692 12.5074 9.36199 12.0769 8.78846 12.0769C8.21494 12.0769 7.75 12.5074 7.75 13.0384C7.75 13.5695 8.21494 14 8.78846 14Z" stroke="white" stroke-width="1.5" stroke-linecap="round" stroke-linejoin="round"/>
<path d="M15.5385 14C16.112 14 16.5769 13.5695 16.5769 13.0384C16.5769 12.5074 16.112 12.0769 15.5385 12.0769C14.9649 12.0769 14.5 12.5074 14.5 13.0384C14.5 13.5695 14.9649 14 15.5385 14Z" stroke="white" stroke-width="1.5" stroke-linecap="round" stroke-linejoin="round"/>
<path d="M22.2885 14C22.862 14 23.3269 13.5695 23.3269 13.0384C23.3269 12.5074 22.862 12.0769 22.2885 12.0769C21.7149 12.0769 21.25 12.5074 21.25 13.0384C21.25 13.5695 21.7149 14 22.2885 14Z" stroke="white" stroke-width="1.5" stroke-linecap="round" stroke-linejoin="round"/>
<path d="M9.30769 24.5769L1 26.5L3.07692 20.7308V3.42308C3.07692 2.91305 3.29574 2.4239 3.68524 2.06326C4.07474 1.70261 4.60301 1.5 5.15385 1.5H25.9231C26.4739 1.5 27.0022 1.70261 27.3917 2.06326C27.7812 2.4239 28 2.91305 28 3.42308V22.6538C28 23.1639 27.7812 23.653 27.3917 24.0137C27.0022 24.3743 26.4739 24.5769 25.9231 24.5769H9.30769Z" stroke="white" stroke-width="1.5" stroke-linecap="round" stroke-linejoin="round"/>
</svg>
