<svg width="297" height="101" viewBox="0 0 297 101" fill="none" xmlns="http://www.w3.org/2000/svg">
<path fill-rule="evenodd" clip-rule="evenodd" d="M69.955 58.6004C69.0729 58.9128 67.4918 59.5923 65.8155 60.0199C64.1042 60.4577 64.2607 61.3358 65.2452 62.6174C73.8082 73.7725 75.1072 86.6319 68.787 97.3913C68.166 98.4474 67.3696 99.1209 66.0245 99.0414C58.9079 98.6252 51.7894 97.3223 45.6192 92.6492C36.0783 85.422 36.1795 83.5284 41.9728 75.6633C43.7872 73.1987 46.2889 71.4559 48.9554 69.9432C50.4501 69.0966 51.9915 69.0863 53.1257 70.8474C54.2457 72.5824 53.5837 73.8881 52.0886 74.7517C48.9226 76.5821 46.2504 78.923 44.4775 82.1859C44.0374 82.9965 43.4663 83.7602 44.3427 84.8365C45.4723 86.2238 46.6711 87.5637 48.3253 88.2174C49.0822 88.5156 49.1716 87.6082 49.4039 87.1375C50.6937 84.5192 52.6612 82.5464 55.0525 80.9835C57.0177 79.6969 58.7465 79.9192 59.8117 81.5266C60.8111 83.0379 60.35 84.5269 58.4187 85.6944C56.8159 86.6662 55.5801 87.9679 54.6169 89.5715C53.9754 90.6411 53.9256 91.3838 55.5421 91.8481C58.0136 92.5559 60.4844 93.1121 62.9823 93.4312C63.9291 93.5513 64.4979 93.2884 64.8558 92.4284C68.0358 84.7771 69.0942 74.628 61.1933 65.1877C59.2966 62.9213 57.1791 61.0036 54.2553 60.392C52.4598 60.0185 51.1932 59.0471 51.2195 57.063C51.2423 55.422 52.6841 54.6305 54.8119 55.016C61.646 56.2506 67.4065 54.6428 71.9606 50.2693C74.715 47.6234 76.1149 44.175 74.9899 39.8761C73.8737 35.6145 70.2261 32.6052 65.5308 31.9788C59.2452 31.141 54.722 33.8019 51.1014 38.057C47.4325 42.3739 45.6508 47.8064 43.9281 53.2602C42.2758 58.4951 40.8698 63.845 38.5669 68.7761C35.5527 75.2234 31.2333 80.3693 24.3033 82.7941C19.9516 84.3167 15.3719 84.269 10.652 82.3252C2.22262 78.8531 -2.0866 69.5577 0.996158 61.5584C3.67054 54.6248 9.41725 51.4266 16.3203 49.6556C18.426 49.1153 20.5771 48.71 22.811 48.6146C23.9267 48.5676 24.2569 48.217 23.4994 47.1093C21.8443 44.6909 20.5869 42.1598 20.3852 39.3135C20.298 38.0884 19.1434 37.7527 18.2965 37.2052C16.1013 35.7876 15.3889 34.4052 16.2241 32.8966C17.2259 31.0879 18.8427 31.4659 20.4724 32.5195C21.5865 33.2398 22.3539 33.316 23.1752 32.3622C24.3459 31.0055 25.937 30.1493 27.7857 29.8772C29.0446 29.6923 29.4656 29.1267 29.3359 27.8297C29.1511 26.0018 29.5666 24.4858 31.7551 24.5441C33.5864 24.5927 34.6771 25.8789 34.7456 28.3092C34.7939 29.93 35.3325 31.0066 36.8267 31.9364C38.4539 32.9484 39.4745 34.3965 38.5555 36.2053C37.7926 37.699 36.3161 37.6761 34.1016 36.2363C31.6483 34.6408 29.2942 34.7358 27.3194 36.5078C25.665 37.9895 25.4264 40.1439 26.8306 42.6368C28.1228 44.9298 29.5986 47.1379 30.9456 49.4075C32.7288 52.4124 31.8463 54.181 28.5889 54.0344C23.4068 53.8008 18.523 54.5135 13.9797 56.4393C10.0092 58.1213 7.01561 60.7651 5.84059 65.0916C4.23623 71.004 8.10917 76.8195 14.5251 78.0354C21.3145 79.3206 26.1109 76.439 29.9438 71.8435C32.7731 68.451 34.4096 64.3068 35.8653 60.0669C38.1481 53.41 39.6428 46.3746 42.8507 40.1623C46.5059 33.085 51.6691 27.7541 60.1643 26.4987C67.4941 25.4153 74.9549 28.9093 78.6276 35.3317C82.0551 41.3234 81.2632 46.7457 78.2423 51.7223C76.4404 54.6927 73.7834 56.7549 69.955 58.6004Z" fill="#FDB813"/>
<path d="M116.651 33.4488C115.798 31.9976 114.626 30.8928 113.134 30.1343C111.641 29.3757 109.9 28.9965 107.91 28.9965C105.707 28.9965 103.753 29.4582 102.047 30.3816C100.342 31.3051 99.0092 32.6243 98.0498 34.3392C97.0904 36.0542 96.6107 38.033 96.6107 40.2756C96.6107 42.5841 97.0904 44.5961 98.0498 46.311C99.0446 48.0258 100.413 49.3452 102.154 50.2686C103.895 51.1919 105.92 51.6537 108.23 51.6537C111.073 51.6537 113.4 50.9611 115.212 49.576C117.024 48.158 118.215 46.1954 118.783 43.6891H105.991V38.3958H126.139V44.4311C125.641 46.8385 124.575 49.0647 122.941 51.1096C121.306 53.1544 119.192 54.8032 116.598 56.0565C114.04 57.2767 111.161 57.8869 107.963 57.8869C104.375 57.8869 101.123 57.1449 98.2097 55.6608C95.3315 54.1438 93.0575 52.0495 91.3873 49.3781C89.7529 46.7067 88.9355 43.6724 88.9355 40.2756C88.9355 36.8787 89.7529 33.8445 91.3873 31.1732C93.0575 28.4688 95.3315 26.3746 98.2097 24.8905C101.123 23.3734 104.357 22.6149 107.91 22.6149C112.103 22.6149 115.745 23.5713 118.837 25.4841C121.928 27.364 124.06 30.0188 125.232 33.4488H116.651ZM159.535 30.1838V57.5901H152.02V54.1272C151.06 55.3145 149.799 56.2544 148.235 56.947C146.708 57.6067 145.037 57.9364 143.225 57.9364C140.916 57.9364 138.873 57.4912 137.096 56.6007C135.319 55.6774 133.916 54.3417 132.885 52.5936C131.89 50.8127 131.393 48.7021 131.393 46.2615V30.1838H138.855V45.2721C138.855 47.4488 139.441 49.1308 140.614 50.318C141.786 51.4724 143.385 52.0495 145.411 52.0495C147.471 52.0495 149.088 51.4724 150.261 50.318C151.433 49.1308 152.02 47.4488 152.02 45.2721V30.1838H159.535ZM170.682 26.9187C169.367 26.9187 168.265 26.5395 167.377 25.7809C166.524 24.9894 166.098 24.0165 166.098 22.8622C166.098 21.7079 166.524 20.7515 167.377 19.9929C168.265 19.2014 169.367 18.8057 170.682 18.8057C171.996 18.8057 173.08 19.2014 173.933 19.9929C174.821 20.7515 175.266 21.7079 175.266 22.8622C175.266 24.0165 174.821 24.9894 173.933 25.7809C173.08 26.5395 171.996 26.9187 170.682 26.9187ZM174.359 30.1838V57.5901H166.897V30.1838H174.359ZM179.813 43.788C179.813 41.0177 180.399 38.5607 181.572 36.417C182.78 34.2733 184.414 32.6243 186.475 31.47C188.536 30.3157 190.828 29.7385 193.351 29.7385C195.27 29.7385 197.1 30.1343 198.841 30.9258C200.582 31.6844 201.968 32.7067 202.998 33.9929V20.9823H210.567V57.5901H202.998V53.5336C202.074 54.8859 200.777 55.9742 199.107 56.7986C197.437 57.623 195.501 58.0353 193.297 58.0353C190.81 58.0353 188.536 57.4417 186.475 56.2544C184.414 55.0671 182.78 53.4018 181.572 51.258C180.399 49.0813 179.813 46.5912 179.813 43.788ZM203.051 43.8869C203.051 42.205 202.696 40.7703 201.985 39.583C201.275 38.3628 200.315 37.4393 199.107 36.8127C197.899 36.1531 196.602 35.8233 195.216 35.8233C193.83 35.8233 192.551 36.1367 191.379 36.7633C190.206 37.3899 189.247 38.3133 188.501 39.5336C187.79 40.7209 187.435 42.1389 187.435 43.788C187.435 45.4371 187.79 46.888 188.501 48.1414C189.247 49.3615 190.206 50.3014 191.379 50.9611C192.587 51.6209 193.866 51.9505 195.216 51.9505C196.602 51.9505 197.899 51.6371 199.107 51.0106C200.315 50.3509 201.275 49.4276 201.985 48.2403C202.696 47.0202 203.051 45.5689 203.051 43.8869ZM221.639 26.9187C220.324 26.9187 219.223 26.5395 218.334 25.7809C217.481 24.9894 217.055 24.0165 217.055 22.8622C217.055 21.7079 217.481 20.7515 218.334 19.9929C219.223 19.2014 220.324 18.8057 221.639 18.8057C222.954 18.8057 224.037 19.2014 224.89 19.9929C225.779 20.7515 226.222 21.7079 226.222 22.8622C226.222 24.0165 225.779 24.9894 224.89 25.7809C224.037 26.5395 222.954 26.9187 221.639 26.9187ZM225.316 30.1838V57.5901H217.854V30.1838H225.316ZM249.052 29.788C252.57 29.788 255.412 30.8269 257.58 32.9046C259.747 34.9494 260.831 37.8186 260.831 41.5124V57.5901H253.369V42.4523C253.369 40.2756 252.783 38.6102 251.61 37.4558C250.438 36.2686 248.839 35.6749 246.813 35.6749C244.752 35.6749 243.118 36.2686 241.91 37.4558C240.737 38.6102 240.151 40.2756 240.151 42.4523V57.5901H232.689V30.1838H240.151V33.5972C241.146 32.4099 242.407 31.4865 243.935 30.8269C245.499 30.1343 247.204 29.788 249.052 29.788ZM279.493 29.7385C281.696 29.7385 283.633 30.1508 285.303 30.9753C286.972 31.7668 288.287 32.8057 289.247 34.0919V30.1838H296.762V57.788C296.762 60.3276 296.211 62.5866 295.11 64.5654C294.008 66.577 292.356 68.1601 290.153 69.3145C287.95 70.5018 285.285 71.0954 282.158 71.0954C277.965 71.0954 274.518 70.1884 271.818 68.3746C269.153 66.5608 267.643 64.0873 267.287 60.9541H274.696C275.087 62.2074 275.922 63.1968 277.201 63.9223C278.516 64.6809 280.097 65.0601 281.945 65.0601C284.112 65.0601 285.871 64.4498 287.221 63.2297C288.571 62.0424 289.247 60.2286 289.247 57.788V53.5336C288.287 54.8198 286.955 55.8915 285.249 56.7491C283.579 57.6067 281.66 58.0353 279.493 58.0353C277.005 58.0353 274.731 57.4417 272.671 56.2544C270.61 55.0671 268.975 53.4018 267.767 51.258C266.595 49.0813 266.008 46.5912 266.008 43.788C266.008 41.0177 266.595 38.5607 267.767 36.417C268.975 34.2733 270.592 32.6243 272.617 31.47C274.678 30.3157 276.97 29.7385 279.493 29.7385ZM289.247 43.8869C289.247 42.205 288.891 40.7703 288.181 39.583C287.47 38.3628 286.511 37.4393 285.303 36.8127C284.094 36.1531 282.798 35.8233 281.412 35.8233C280.026 35.8233 278.747 36.1367 277.574 36.7633C276.402 37.3899 275.442 38.3133 274.696 39.5336C273.985 40.7209 273.63 42.1389 273.63 43.788C273.63 45.4371 273.985 46.888 274.696 48.1414C275.442 49.3615 276.402 50.3014 277.574 50.9611C278.782 51.6209 280.061 51.9505 281.412 51.9505C282.798 51.9505 284.094 51.6371 285.303 51.0106C286.511 50.3509 287.47 49.4276 288.181 48.2403C288.891 47.0202 289.247 45.5689 289.247 43.8869ZM111.854 82.2827C113.951 82.6456 115.674 83.6184 117.024 85.2014C118.375 86.7845 119.05 88.5982 119.05 90.6431C119.05 92.4901 118.552 94.1226 117.557 95.5406C116.598 96.9258 115.194 98.0142 113.347 98.8057C111.499 99.5972 109.314 99.9929 106.791 99.9929H90.7477V65.4629H106.098C108.621 65.4629 110.788 65.8421 112.601 66.6007C114.448 67.3594 115.834 68.4145 116.758 69.7668C117.717 71.1191 118.197 72.6527 118.197 74.3675C118.197 76.3792 117.611 78.0611 116.438 79.4134C115.301 80.7657 113.773 81.7219 111.854 82.2827ZM98.2097 79.7103H105.032C106.809 79.7103 108.177 79.3474 109.136 78.6219C110.095 77.8633 110.575 76.7915 110.575 75.4064C110.575 74.0212 110.095 72.9495 109.136 72.1908C108.177 71.4322 106.809 71.053 105.032 71.053H98.2097V79.7103ZM105.725 94.3534C107.537 94.3534 108.941 93.9576 109.936 93.1661C110.966 92.3746 111.481 91.2534 111.481 89.8021C111.481 88.318 110.948 87.1636 109.882 86.3392C108.816 85.4816 107.377 85.053 105.565 85.053H98.2097V94.3534H105.725ZM152.446 85.6961C152.446 86.6855 152.375 87.576 152.233 88.3675H130.647C130.824 90.3463 131.571 91.8965 132.885 93.0177C134.2 94.1389 135.817 94.6997 137.735 94.6997C140.507 94.6997 142.479 93.5947 143.652 91.3852H151.7C150.847 94.0237 149.213 96.2004 146.796 97.9152C144.38 99.5972 141.413 100.438 137.895 100.438C135.053 100.438 132.494 99.8611 130.22 98.7067C127.982 97.5194 126.223 95.8541 124.944 93.7103C123.7 91.5664 123.078 89.0929 123.078 86.2898C123.078 83.4534 123.7 80.9636 124.944 78.8198C126.187 76.676 127.928 75.0272 130.167 73.8728C132.405 72.7184 134.982 72.1413 137.895 72.1413C140.702 72.1413 143.207 72.7021 145.411 73.8233C147.649 74.9445 149.373 76.5442 150.581 78.6219C151.824 80.6668 152.446 83.0247 152.446 85.6961ZM144.718 83.7173C144.682 81.9364 143.989 80.5184 142.639 79.4629C141.289 78.3746 139.636 77.8304 137.682 77.8304C135.835 77.8304 134.271 78.358 132.992 79.4134C131.748 80.4357 130.984 81.8703 130.7 83.7173H144.718ZM185.342 85.6961C185.342 86.6855 185.271 87.576 185.129 88.3675H163.542C163.72 90.3463 164.466 91.8965 165.781 93.0177C167.096 94.1389 168.712 94.6997 170.631 94.6997C173.403 94.6997 175.375 93.5947 176.547 91.3852H184.596C183.743 94.0237 182.108 96.2004 179.692 97.9152C177.276 99.5972 174.309 100.438 170.791 100.438C167.949 100.438 165.39 99.8611 163.116 98.7067C160.877 97.5194 159.118 95.8541 157.839 93.7103C156.596 91.5664 155.974 89.0929 155.974 86.2898C155.974 83.4534 156.596 80.9636 157.839 78.8198C159.083 76.676 160.824 75.0272 163.063 73.8728C165.301 72.7184 167.877 72.1413 170.791 72.1413C173.598 72.1413 176.103 72.7021 178.306 73.8233C180.545 74.9445 182.268 76.5442 183.476 78.6219C184.72 80.6668 185.342 83.0247 185.342 85.6961ZM177.613 83.7173C177.578 81.9364 176.885 80.5184 175.535 79.4629C174.185 78.3746 172.532 77.8304 170.578 77.8304C168.73 77.8304 167.167 78.358 165.887 79.4134C164.644 80.4357 163.88 81.8703 163.596 83.7173H177.613Z" fill="black"/>
<path d="M91.1594 6.74507C90.5402 5.62953 89.1181 5.27784 87.983 5.95953C86.8479 6.64123 86.4297 8.09817 87.0488 9.2137L91.9264 18.0014C92.5455 19.1169 93.9677 19.4686 95.1028 18.7869C96.2379 18.1052 96.6561 16.6483 96.0369 15.5328L91.1594 6.74507Z" fill="#FDB813"/>
<path d="M90.3607 7.22473C89.9823 6.54291 89.1131 6.32795 88.4193 6.7446C87.7255 7.16126 87.4699 8.05175 87.8483 8.73357L92.7258 17.5213C93.1043 18.2031 93.9735 18.418 94.6673 18.0014C95.3611 17.5847 95.6167 16.6943 95.2382 16.0124L90.3607 7.22473Z" stroke="#FDB813" stroke-width="5"/>
<path d="M111.436 4.29682C111.436 3.02832 110.328 2 108.961 2C107.594 2 106.486 3.02832 106.486 4.29682V14.5442C106.486 15.8127 107.594 16.841 108.961 16.841C110.328 16.841 111.436 15.8127 111.436 14.5442V4.29682Z" fill="#FDB813"/>
<path d="M110.484 4.29673C110.484 3.51611 109.802 2.8833 108.961 2.8833C108.12 2.8833 107.438 3.51611 107.438 4.29673V14.5441C107.438 15.3247 108.12 15.9575 108.961 15.9575C109.802 15.9575 110.484 15.3247 110.484 14.5441V4.29673Z" stroke="#FDB813" stroke-width="5"/>
<path d="M125.62 5.89782C126.239 4.78228 127.661 4.43058 128.796 5.11227C129.931 5.79397 130.35 7.2509 129.73 8.36645L124.853 17.1541C124.234 18.2697 122.812 18.6214 121.677 17.9397C120.542 17.258 120.123 15.801 120.742 14.6855L125.62 5.89782Z" fill="#FDB813"/>
<path d="M126.419 6.37767C126.797 5.69583 127.666 5.48088 128.36 5.89753C129.054 6.31417 129.31 7.20466 128.931 7.8865L124.054 16.6742C123.675 17.356 122.806 17.571 122.112 17.1543C121.419 16.7377 121.163 15.8472 121.541 15.1653L126.419 6.37767Z" stroke="#FDB813" stroke-width="5"/>
</svg>
