<svg width="49" height="46" viewBox="0 0 49 46" fill="none" xmlns="http://www.w3.org/2000/svg">
<path fill-rule="evenodd" clip-rule="evenodd" d="M42.2966 20.5923C41.7632 20.7812 40.8072 21.192 39.7937 21.4505C38.759 21.7152 38.8536 22.2461 39.4489 23.0211C44.6263 29.7657 45.4117 37.5408 41.5903 44.0462C41.2149 44.6848 40.7333 45.092 39.9201 45.0439C35.6172 44.7923 31.3132 44.0045 27.5825 41.179C21.8138 36.8093 21.875 35.6643 25.3778 30.909C26.4749 29.4188 27.9874 28.365 29.5997 27.4504C30.5034 26.9385 31.4354 26.9323 32.1211 27.9971C32.7983 29.0462 32.398 29.8356 31.4941 30.3577C29.5799 31.4644 27.9642 32.8799 26.8922 34.8527C26.6261 35.3428 26.2808 35.8045 26.8107 36.4553C27.4937 37.2941 28.2185 38.1042 29.2187 38.4995C29.6763 38.6798 29.7304 38.1311 29.8708 37.8465C30.6507 36.2634 31.8403 35.0706 33.2861 34.1256C34.4743 33.3478 35.5196 33.4821 36.1637 34.454C36.7679 35.3678 36.4892 36.2681 35.3214 36.974C34.3523 37.5615 33.6051 38.3486 33.0228 39.3182C32.6349 39.9649 32.6047 40.414 33.5821 40.6947C35.0765 41.1226 36.5704 41.4589 38.0807 41.6518C38.6531 41.7245 38.997 41.5655 39.2134 41.0455C41.1362 36.4194 41.7761 30.283 36.999 24.5751C35.8522 23.2048 34.5719 22.0453 32.8041 21.6755C31.7185 21.4497 30.9527 20.8623 30.9686 19.6627C30.9824 18.6705 31.8541 18.192 33.1406 18.425C37.2727 19.1715 40.7557 18.1994 43.5092 15.5551C45.1746 13.9553 46.021 11.8703 45.3408 9.27107C44.6659 6.69444 42.4604 4.87493 39.6215 4.49617C35.8212 3.98963 33.0863 5.59847 30.8972 8.1712C28.6789 10.7813 27.6016 14.066 26.56 17.3634C25.561 20.5286 24.7109 23.7633 23.3185 26.7447C21.496 30.643 18.8844 33.7543 14.6944 35.2204C12.0632 36.141 9.29424 36.1122 6.44047 34.9369C1.34385 32.8376 -1.26161 27.2173 0.602302 22.3807C2.2193 18.1885 5.69391 16.2548 9.86766 15.184C11.1408 14.8573 12.4414 14.6123 13.7921 14.5546C14.4667 14.5262 14.6663 14.3142 14.2083 13.6444C13.2076 12.1822 12.4474 10.6519 12.3254 8.93094C12.2727 8.19022 11.5746 7.98725 11.0625 7.6562C9.73526 6.79907 9.30453 5.96327 9.80949 5.05112C10.4152 3.95754 11.3927 4.18606 12.3781 4.8231C13.0517 5.25864 13.5157 5.3047 14.0123 4.72798C14.7201 3.90768 15.6821 3.39 16.7999 3.2255C17.5611 3.11374 17.8156 2.77171 17.7372 1.98755C17.6255 0.882328 17.8767 -0.0342881 19.2 0.000985231C20.3072 0.0303619 20.9667 0.808022 21.0081 2.27745C21.0372 3.25746 21.3629 3.90838 22.2664 4.47055C23.2502 5.08242 23.8673 5.95802 23.3116 7.05164C22.8503 7.95478 21.9576 7.94089 20.6187 7.07036C19.1353 6.10569 17.712 6.16314 16.518 7.23452C15.5177 8.1304 15.3734 9.43301 16.2225 10.9403C17.0038 12.3267 17.8961 13.6618 18.7105 15.034C19.7887 16.8509 19.2551 17.9202 17.2856 17.8315C14.1524 17.6903 11.1995 18.1212 8.45247 19.2856C6.05182 20.3026 4.24182 21.9011 3.53137 24.517C2.56133 28.0918 4.90301 31.608 8.78226 32.3432C12.8873 33.1202 15.7873 31.3779 18.1048 28.5994C19.8154 26.5482 20.8049 24.0425 21.6851 21.4789C23.0653 17.454 23.969 13.2003 25.9086 9.44412C28.1186 5.165 31.2404 1.94185 36.3768 1.1828C40.8086 0.527736 45.3196 2.64031 47.5402 6.52344C49.6126 10.1462 49.1338 13.4246 47.3073 16.4336C46.2178 18.2296 44.6113 19.4764 42.2966 20.5923Z" fill="#FDB813"/>
</svg>
