<svg width="122" height="55" viewBox="0 0 122 55" fill="none" xmlns="http://www.w3.org/2000/svg">
<path fill-rule="evenodd" clip-rule="evenodd" d="M26.8149 21.2565C26.4768 21.3781 25.8707 21.6426 25.2282 21.809C24.5722 21.9794 24.6322 22.3212 25.0096 22.8201C28.2919 27.162 28.7898 32.1673 26.3672 36.3552C26.1292 36.7663 25.8239 37.0285 25.3083 36.9975C22.5804 36.8355 19.8517 36.3284 17.4866 34.5095C13.8294 31.6964 13.8682 30.9593 16.0889 27.898C16.7844 26.9386 17.7433 26.2603 18.7654 25.6715C19.3383 25.342 19.9292 25.338 20.364 26.0235C20.7933 26.6988 20.5395 27.207 19.9664 27.5431C18.7529 28.2556 17.7286 29.1668 17.049 30.4368C16.8803 30.7523 16.6614 31.0495 16.9973 31.4685C17.4303 32.0085 17.8898 32.53 18.5239 32.7844C18.814 32.9005 18.8483 32.5473 18.9373 32.3641C19.4317 31.345 20.1859 30.5771 21.1025 29.9688C21.8558 29.468 22.5185 29.5545 22.9268 30.1802C23.3099 30.7684 23.1332 31.348 22.3929 31.8024C21.7785 32.1807 21.3048 32.6873 20.9356 33.3115C20.6897 33.7278 20.6706 34.0169 21.2902 34.1977C22.2376 34.4731 23.1847 34.6896 24.1422 34.8138C24.5051 34.8606 24.7231 34.7583 24.8603 34.4235C26.0793 31.4454 26.485 27.495 23.4564 23.8205C22.7294 22.9383 21.9177 22.1919 20.7969 21.9538C20.1087 21.8085 19.6232 21.4304 19.6333 20.6581C19.642 20.0194 20.1947 19.7113 21.0103 19.8613C23.6299 20.3419 25.838 19.7161 27.5837 18.0138C28.6395 16.9839 29.1761 15.6416 28.7449 13.9683C28.317 12.3096 26.9188 11.1383 25.119 10.8945C22.7097 10.5684 20.9759 11.6041 19.588 13.2603C18.1817 14.9406 17.4987 17.0551 16.8384 19.1779C16.205 21.2155 15.6661 23.2979 14.7833 25.2172C13.6279 27.7267 11.9722 29.7297 9.31585 30.6735C7.64778 31.2662 5.89231 31.2476 4.08309 30.491C0.851966 29.1395 -0.799829 25.5214 0.381844 22.4079C1.40698 19.7091 3.60979 18.4642 6.25584 17.7749C7.06298 17.5646 7.88753 17.4068 8.74382 17.3697C9.17149 17.3514 9.29806 17.2149 9.00772 16.7838C8.37327 15.8424 7.89131 14.8573 7.81398 13.7494C7.78055 13.2725 7.33799 13.1419 7.01335 12.9288C6.1719 12.377 5.89883 11.8389 6.21896 11.2517C6.60298 10.5477 7.2227 10.6948 7.8474 11.1049C8.27446 11.3853 8.56861 11.415 8.88343 11.0437C9.33219 10.5156 9.94207 10.1824 10.6507 10.0764C11.1333 10.0045 11.2946 9.78432 11.2449 9.27951C11.1741 8.56801 11.3334 7.97793 12.1723 8.00063C12.8742 8.01955 13.2923 8.52017 13.3186 9.46614C13.3371 10.097 13.5435 10.5161 14.1163 10.878C14.74 11.2719 15.1312 11.8355 14.779 12.5396C14.4865 13.121 13.9205 13.112 13.0717 12.5516C12.1313 11.9306 11.2289 11.9676 10.472 12.6573C9.83783 13.234 9.74635 14.0726 10.2846 15.0429C10.7799 15.9354 11.3456 16.7949 11.8619 17.6783C12.5455 18.8479 12.2072 19.5363 10.9586 19.4792C8.97223 19.3883 7.10018 19.6657 5.35865 20.4153C3.8367 21.07 2.6892 22.0991 2.23879 23.7831C1.62382 26.0844 3.10838 28.348 5.56772 28.8213C8.1702 29.3215 10.0087 28.1999 11.478 26.4112C12.5625 25.0907 13.1898 23.4776 13.7478 21.8273C14.6228 19.2362 15.1958 16.4978 16.4254 14.0798C17.8265 11.325 19.8056 9.25009 23.062 8.76144C25.8716 8.33974 28.7314 9.69973 30.1393 12.1995C31.4531 14.5317 31.1496 16.6422 29.9916 18.5793C29.3009 19.7355 28.2824 20.5382 26.8149 21.2565Z" fill="#FDB813"/>
<path d="M37.139 3.72136C36.8384 3.14588 37.0415 2.39428 37.5926 2.04262C38.1437 1.69095 38.8341 1.87238 39.1347 2.44785L41.5028 6.98121C41.8034 7.55668 41.6003 8.30828 41.0492 8.65995C40.4981 9.01162 39.8077 8.83019 39.5071 8.25472L37.139 3.72136Z" fill="#FFBA15"/>
<path d="M46.5993 1.18237C46.5993 0.529366 47.1361 0 47.7982 0C48.4603 0 48.9971 0.529366 48.9971 1.18237V6.48266C48.9971 7.13567 48.4603 7.66503 47.7982 7.66503C47.1361 7.66503 46.5993 7.13567 46.5993 6.48266V1.18237Z" fill="#FFBA15"/>
<path d="M55.8653 2.01079C56.1659 1.43532 56.8563 1.25388 57.4074 1.60555C57.9585 1.95722 58.1616 2.70882 57.861 3.2843L55.4929 7.81765C55.1923 8.39313 54.5019 8.57456 53.9508 8.22289C53.3997 7.87122 53.1966 7.11962 53.4972 6.54415L55.8653 2.01079Z" fill="#FFBA15"/>
<path d="M51.1 14.24C50.78 13.6533 50.34 13.2067 49.78 12.9C49.22 12.5933 48.5667 12.44 47.82 12.44C46.9933 12.44 46.26 12.6267 45.62 13C44.98 13.3733 44.48 13.9067 44.12 14.6C43.76 15.2933 43.58 16.0933 43.58 17C43.58 17.9333 43.76 18.7467 44.12 19.44C44.4933 20.1333 45.0067 20.6667 45.66 21.04C46.3133 21.4133 47.0733 21.6 47.94 21.6C49.0067 21.6 49.88 21.32 50.56 20.76C51.24 20.1867 51.6867 19.3933 51.9 18.38H47.1V16.24H54.66V18.68C54.4733 19.6533 54.0733 20.5533 53.46 21.38C52.8467 22.2067 52.0533 22.8733 51.08 23.38C50.12 23.8733 49.04 24.12 47.84 24.12C46.4933 24.12 45.2733 23.82 44.18 23.22C43.1 22.6067 42.2467 21.76 41.62 20.68C41.0067 19.6 40.7 18.3733 40.7 17C40.7 15.6267 41.0067 14.4 41.62 13.32C42.2467 12.2267 43.1 11.38 44.18 10.78C45.2733 10.1667 46.4867 9.86 47.82 9.86C49.3933 9.86 50.76 10.2467 51.92 11.02C53.08 11.78 53.88 12.8533 54.32 14.24H51.1ZM67.1916 12.92V24H64.3716V22.6C64.0116 23.08 63.5382 23.46 62.9516 23.74C62.3782 24.0067 61.7516 24.14 61.0716 24.14C60.2049 24.14 59.4382 23.96 58.7716 23.6C58.1049 23.2267 57.5782 22.6867 57.1916 21.98C56.8182 21.26 56.6316 20.4067 56.6316 19.42V12.92H59.4316V19.02C59.4316 19.9 59.6516 20.58 60.0916 21.06C60.5316 21.5267 61.1316 21.76 61.8916 21.76C62.6649 21.76 63.2716 21.5267 63.7116 21.06C64.1516 20.58 64.3716 19.9 64.3716 19.02V12.92H67.1916ZM71.3742 11.6C70.8809 11.6 70.4676 11.4467 70.1342 11.14C69.8142 10.82 69.6542 10.4267 69.6542 9.96C69.6542 9.49333 69.8142 9.10667 70.1342 8.8C70.4676 8.48 70.8809 8.32 71.3742 8.32C71.8676 8.32 72.2742 8.48 72.5942 8.8C72.9276 9.10667 73.0942 9.49333 73.0942 9.96C73.0942 10.4267 72.9276 10.82 72.5942 11.14C72.2742 11.4467 71.8676 11.6 71.3742 11.6ZM72.7542 12.92V24H69.9542V12.92H72.7542ZM74.8006 18.42C74.8006 17.3 75.0206 16.3067 75.4606 15.44C75.914 14.5733 76.5273 13.9067 77.3006 13.44C78.074 12.9733 78.934 12.74 79.8806 12.74C80.6006 12.74 81.2873 12.9 81.9406 13.22C82.594 13.5267 83.114 13.94 83.5006 14.46V9.2H86.3406V24H83.5006V22.36C83.154 22.9067 82.6673 23.3467 82.0406 23.68C81.414 24.0133 80.6873 24.18 79.8606 24.18C78.9273 24.18 78.074 23.94 77.3006 23.46C76.5273 22.98 75.914 22.3067 75.4606 21.44C75.0206 20.56 74.8006 19.5533 74.8006 18.42ZM83.5206 18.46C83.5206 17.78 83.3873 17.2 83.1206 16.72C82.854 16.2267 82.494 15.8533 82.0406 15.6C81.5873 15.3333 81.1006 15.2 80.5806 15.2C80.0606 15.2 79.5806 15.3267 79.1406 15.58C78.7006 15.8333 78.3406 16.2067 78.0606 16.7C77.794 17.18 77.6606 17.7533 77.6606 18.42C77.6606 19.0867 77.794 19.6733 78.0606 20.18C78.3406 20.6733 78.7006 21.0533 79.1406 21.32C79.594 21.5867 80.074 21.72 80.5806 21.72C81.1006 21.72 81.5873 21.5933 82.0406 21.34C82.494 21.0733 82.854 20.7 83.1206 20.22C83.3873 19.7267 83.5206 19.14 83.5206 18.46ZM90.4953 11.6C90.002 11.6 89.5886 11.4467 89.2553 11.14C88.9353 10.82 88.7753 10.4267 88.7753 9.96C88.7753 9.49333 88.9353 9.10667 89.2553 8.8C89.5886 8.48 90.002 8.32 90.4953 8.32C90.9886 8.32 91.3953 8.48 91.7153 8.8C92.0486 9.10667 92.2153 9.49333 92.2153 9.96C92.2153 10.4267 92.0486 10.82 91.7153 11.14C91.3953 11.4467 90.9886 11.6 90.4953 11.6ZM91.8753 12.92V24H89.0753V12.92H91.8753ZM100.782 12.76C102.102 12.76 103.168 13.18 103.982 14.02C104.795 14.8467 105.202 16.0067 105.202 17.5V24H102.402V17.88C102.402 17 102.182 16.3267 101.742 15.86C101.302 15.38 100.702 15.14 99.9417 15.14C99.1684 15.14 98.5551 15.38 98.1017 15.86C97.6617 16.3267 97.4417 17 97.4417 17.88V24H94.6417V12.92H97.4417V14.3C97.8151 13.82 98.2884 13.4467 98.8617 13.18C99.4484 12.9 100.088 12.76 100.782 12.76ZM112.204 12.74C113.031 12.74 113.758 12.9067 114.384 13.24C115.011 13.56 115.504 13.98 115.864 14.5V12.92H118.684V24.08C118.684 25.1067 118.478 26.02 118.064 26.82C117.651 27.6333 117.031 28.2733 116.204 28.74C115.378 29.22 114.378 29.46 113.204 29.46C111.631 29.46 110.338 29.0933 109.324 28.36C108.324 27.6267 107.758 26.6267 107.624 25.36H110.404C110.551 25.8667 110.864 26.2667 111.344 26.56C111.838 26.8667 112.431 27.02 113.124 27.02C113.938 27.02 114.598 26.7733 115.104 26.28C115.611 25.8 115.864 25.0667 115.864 24.08V22.36C115.504 22.88 115.004 23.3133 114.364 23.66C113.738 24.0067 113.018 24.18 112.204 24.18C111.271 24.18 110.418 23.94 109.644 23.46C108.871 22.98 108.258 22.3067 107.804 21.44C107.364 20.56 107.144 19.5533 107.144 18.42C107.144 17.3 107.364 16.3067 107.804 15.44C108.258 14.5733 108.864 13.9067 109.624 13.44C110.398 12.9733 111.258 12.74 112.204 12.74ZM115.864 18.46C115.864 17.78 115.731 17.2 115.464 16.72C115.198 16.2267 114.838 15.8533 114.384 15.6C113.931 15.3333 113.444 15.2 112.924 15.2C112.404 15.2 111.924 15.3267 111.484 15.58C111.044 15.8333 110.684 16.2067 110.404 16.7C110.138 17.18 110.004 17.7533 110.004 18.42C110.004 19.0867 110.138 19.6733 110.404 20.18C110.684 20.6733 111.044 21.0533 111.484 21.32C111.938 21.5867 112.418 21.72 112.924 21.72C113.444 21.72 113.931 21.5933 114.384 21.34C114.838 21.0733 115.198 20.7 115.464 20.22C115.731 19.7267 115.864 19.14 115.864 18.46ZM54.0656 37.84C54.8523 37.9867 55.499 38.38 56.0056 39.02C56.5123 39.66 56.7656 40.3933 56.7656 41.22C56.7656 41.9667 56.579 42.6267 56.2056 43.2C55.8456 43.76 55.319 44.2 54.6256 44.52C53.9323 44.84 53.1123 45 52.1656 45H46.1456V31.04H51.9056C52.8523 31.04 53.6656 31.1933 54.3456 31.5C55.039 31.8067 55.559 32.2333 55.9056 32.78C56.2656 33.3267 56.4456 33.9467 56.4456 34.64C56.4456 35.4533 56.2256 36.1333 55.7856 36.68C55.359 37.2267 54.7856 37.6133 54.0656 37.84ZM48.9456 36.8H51.5056C52.1723 36.8 52.6856 36.6533 53.0456 36.36C53.4056 36.0533 53.5856 35.62 53.5856 35.06C53.5856 34.5 53.4056 34.0667 53.0456 33.76C52.6856 33.4533 52.1723 33.3 51.5056 33.3H48.9456V36.8ZM51.7656 42.72C52.4456 42.72 52.9723 42.56 53.3456 42.24C53.7323 41.92 53.9256 41.4667 53.9256 40.88C53.9256 40.28 53.7256 39.8133 53.3256 39.48C52.9256 39.1333 52.3856 38.96 51.7056 38.96H48.9456V42.72H51.7656ZM69.2972 39.22C69.2972 39.62 69.2705 39.98 69.2172 40.3H61.1172C61.1839 41.1 61.4639 41.7267 61.9572 42.18C62.4505 42.6333 63.0572 42.86 63.7772 42.86C64.8172 42.86 65.5572 42.4133 65.9972 41.52H69.0172C68.6972 42.5867 68.0839 43.4667 67.1772 44.16C66.2705 44.84 65.1572 45.18 63.8372 45.18C62.7705 45.18 61.8105 44.9467 60.9572 44.48C60.1172 44 59.4572 43.3267 58.9772 42.46C58.5105 41.5933 58.2772 40.5933 58.2772 39.46C58.2772 38.3133 58.5105 37.3067 58.9772 36.44C59.4439 35.5733 60.0972 34.9067 60.9372 34.44C61.7772 33.9733 62.7439 33.74 63.8372 33.74C64.8905 33.74 65.8305 33.9667 66.6572 34.42C67.4972 34.8733 68.1439 35.52 68.5972 36.36C69.0639 37.1867 69.2972 38.14 69.2972 39.22ZM66.3972 38.42C66.3839 37.7 66.1239 37.1267 65.6172 36.7C65.1105 36.26 64.4905 36.04 63.7572 36.04C63.0639 36.04 62.4772 36.2533 61.9972 36.68C61.5305 37.0933 61.2439 37.6733 61.1372 38.42H66.3972ZM81.6409 39.22C81.6409 39.62 81.6143 39.98 81.5609 40.3H73.4609C73.5276 41.1 73.8076 41.7267 74.3009 42.18C74.7943 42.6333 75.4009 42.86 76.1209 42.86C77.1609 42.86 77.9009 42.4133 78.3409 41.52H81.3609C81.0409 42.5867 80.4276 43.4667 79.5209 44.16C78.6143 44.84 77.5009 45.18 76.1809 45.18C75.1143 45.18 74.1543 44.9467 73.3009 44.48C72.4609 44 71.8009 43.3267 71.3209 42.46C70.8543 41.5933 70.6209 40.5933 70.6209 39.46C70.6209 38.3133 70.8543 37.3067 71.3209 36.44C71.7876 35.5733 72.4409 34.9067 73.2809 34.44C74.1209 33.9733 75.0876 33.74 76.1809 33.74C77.2343 33.74 78.1743 33.9667 79.0009 34.42C79.8409 34.8733 80.4876 35.52 80.9409 36.36C81.4076 37.1867 81.6409 38.14 81.6409 39.22ZM78.7409 38.42C78.7276 37.7 78.4676 37.1267 77.9609 36.7C77.4543 36.26 76.8343 36.04 76.1009 36.04C75.4076 36.04 74.8209 36.2533 74.3409 36.68C73.8743 37.0933 73.5876 37.6733 73.4809 38.42H78.7409Z" fill="white"/>
</svg>
